<ttFont>
          <CharString index="0">
            520 264 -7 callsubr
            -165 -64 -114 -148 -212 137 -40 100 77 66 18 34 53 vhcurveto
            -30 callgsubr
            -21 -35 -50 -18 -72 hhcurveto
            -52 -55 35 48 hvcurveto
            284 hlineto
            2 16 1 18 20 vvcurveto
            -283 49 rmoveto
            41 2 20 44 34 hhcurveto
            35 19 -53 -32 2 hvcurveto
            return
          </CharString>
          <CharString index="1">
            448 -71 callsubr
            -102 callsubr
            185 hlineto
            -414 287 -86 callgsubr
            return
          </CharString>
          <CharString index="2">
            -13 -15 -3 -11 vhcurveto
            -59 58 23 vlineto
            0 49 7 48 vvcurveto
            48 -42 24 -50 -15 -26 -3 -2 -9 vhcurveto
            -53 vlineto
            3 13 10 1 8 hhcurveto
            14 16 -4 -17 hvcurveto
            return
          </CharString>
          <CharString index="3">
            -400 vlineto
            -85 -35 -41 -78 -78 -35 41 85 vhcurveto
            400 -172 -380 vlineto
            -187 105 -107 180 180 105 107 187 vhcurveto
            return
          </CharString>
          <CharString index="4">
            rmoveto
            -48 hlineto
            -120 -30 callsubr
            102 hlineto
            42 44 42 -44 rlineto
            102 hlineto
            return
          </CharString>
          <CharString index="5">
            -162 hlineto
            -265 -667 -61 callsubr
            52 160 rlineto
            218 hlineto
            -59 callsubr
            return
          </CharString>
          <CharString index="6">
            rmoveto
            120 109 -120 hlineto
            return
          </CharString>
          <CharString index="7">
            638 -62 callgsubr
            -27 hhcurveto
            71 -38 -71 38 -99 hhcurveto
            -153 -87 -90 -166 -166 87 -90 153 153 87 90 166 26 -3 25 -4 22 hvcurveto
            25 4 28 12 35 22 rrcurveto
            42 27 60 38 0 vvcurveto
            -423 -308 rmoveto
            -43 -25 42 90 90 25 42 43 43 25 -42 -90 -90 -25 -42 -43 hvcurveto
            return
          </CharString>
          <CharString index="8">
            813 693 -57 callgsubr
            -28 hhcurveto
            -5 -4 0 1 -4 hvcurveto
            109 -172 -104 callsubr
            197 vlineto
            -2 6 8 0 7 hhcurveto
            30 33 12 27 43 hvcurveto
            42 27 60 38 0 vvcurveto
            return
          </CharString>
          <CharString index="9">
            -29 -9 14 22 -3 hvcurveto
            -90 hlineto
            -67 42 -40 89 89 42 40 67 vhcurveto
            return
          </CharString>
          <CharString index="10">
            302 506 rmoveto
            -92 -148 -25 -230 -158 85 -87 136 11 24 1 1 13 hvcurveto
            -46 -4 -19 -41 -72 hhcurveto
            -39 -37 5 27 -47 hvcurveto
            -122 vlineto
            -15 47 56 -11 54 hhcurveto
            198 35 144 71 hvcurveto
            311 vlineto
            85 -41 90 -160 vhcurveto
            30 -396 rmoveto
            -3 -13 -3 0 -9 hhcurveto
            -46 -27 62 80 76 20 63 39 38 1 -24 -15 hvcurveto
            return
          </CharString>
          <CharString index="11">
            309 673 rmoveto
            -129 -118 -61 -146 hvcurveto
            -249 307 72 -92 vvcurveto
            -39 -47 -17 -46 -74 -69 25 52 -63 vhcurveto
            -161 vlineto
            -41 59 77 -24 95 hhcurveto
            130 110 78 120 hvcurveto
            266 -307 -71 84 vvcurveto
            44 58 12 42 50 53 -17 -31 52 vhcurveto
            150 vlineto
            28 -52 -63 18 -65 hhcurveto
            return
          </CharString>
          <CharString index="12">
            1 -47 -9 -27 -30 -5 rrcurveto
            -65 vlineto
            77 58 64 80 -2 hvcurveto
            endchar
          </CharString>
          <CharString index="13">
            rmoveto
            27 5 29 30 35 vvcurveto
            78 -74 21 -56 -35 -35 -11 -15 -28 vhcurveto
            -78 vlineto
            21 44 22 -2 22 hhcurveto
            22 25 -9 -18 hvcurveto
            hintmask 11001000
            -15 -10 -15 -27 vhcurveto
            -60 -66 59 hlineto
            hintmask 11000010
            44 10 -22 -18 -21 -21 -16 -32 hvcurveto
            hintmask 11010000
            -30 -39 14 22 -36 hvcurveto
            -89 vlineto
            -16 33 37 -14 39 hhcurveto
            hintmask 11000010
            61 80 19 86 46 -29 36 -42 12 hvcurveto
            endchar
          </CharString>
          <CharString index="14">
            rmoveto
            5 33 2 5 12 hvcurveto
            -41 -5 -45 -14 -34 hhcurveto
            -14 -19 2 10 -33 hvcurveto
            -78 vlineto
            -8 17 30 -5 26 hhcurveto
            51 116 19 178 113 -45 58 -87 hvcurveto
            hintmask 11110100
            -97 -35 -71 -60 -97 66 -13 58 hvcurveto
            8 161 rmoveto
            21 21 -30 -67 -1 hvcurveto
            -5 -11 -14 -1 -15 hhcurveto
            -30 -10 28 23 10 3 42 36 hvcurveto
            endchar
          </CharString>
          <CharString index="15">
            327 375 rmoveto
            43 35 -9 -22 48 hvcurveto
            128 vlineto
            21 -43 -57 13 -57 hhcurveto
            -153 -85 -91 -166 -166 85 -91 153 57 57 13 21 43 hvcurveto
            128 vlineto
            -22 -48 -35 -9 -43 hhcurveto
            -55 -42 38 88 88 42 38 55 hvcurveto
            return
          </CharString>
          <CharString index="16">
            rmoveto
            -10 -8 0 -1 -8 hvcurveto
            2 31 rlineto
            132 83 -212 hlineto
            -20 -174 51 -37 rlineto
            0 26 17 39 -1 vhcurveto
            24 19 -14 -30 -19 -13 -24 -34 hvcurveto
            hintmask 11110000
            -36 -40 18 18 -28 hvcurveto
            -88 vlineto
            -15 32 39 -15 46 hhcurveto
            61 65 24 93 94 -50 40 -77 hvcurveto
            endchar
          </CharString>
          <CharString index="17">
            -120 -30 callsubr
            102 hlineto
            42 44 42 -44 rlineto
            102 hlineto
            8 158 -104 callgsubr
          </CharString>
          <CharString index="18">
            -105 callgsubr
            24 return
          </CharString>
          <CharString index="19">
            368 384 rmoveto
            115 -104 148 -172 -148 -68 -115 68 -216 vlineto
            -109 58 -66 118 32 34 5 19 34 vhcurveto
            123 vlineto
            -19 -32 -22 -6 -19 hhcurveto
            -17 -14 13 14 hvcurveto
            242 vlineto
            return
          </CharString>
          <CharString index="20">
            -44 0 141 122 141 123 140 return
          </CharString>
          <CharString index="21">
            rmoveto
            56 -34 59 -96 -42 -39 -17 -19 -31 vhcurveto
            -94 vlineto
            28 35 39 16 29 hhcurveto
            hintmask 11010000
            32 15 -15 -21 -53 -101 -78 -51 -38 hvcurveto
            -73 246 83 -105 vlineto
            44 39 59 66 61 vvcurveto
            endchar
          </CharString>
          <CharString index="22">
            rmoveto
            -81 hlineto
            -157 -197 rlineto
            -71 146 -91 92 91 43 79 -43 vlineto
            -92 hmoveto
            -48 hlineto
            48 63 rlineto
            endchar
          </CharString>
          <CharString index="23">
            -106 callgsubr
            24 return
          </CharString>
          <CharString index="24">
            48 -42 24 -50 -15 -26 -3 -2 -9 vhcurveto
            -53 vlineto
            3 13 10 1 8 hhcurveto
            14 16 -4 -17 hvcurveto
            endchar
          </CharString>
          <CharString index="25">
            327 -71 callsubr
            -240 -667 240 hlineto
            207 110 115 218 219 -110 115 -207 hvcurveto
            -526 vmoveto
            -68 386 68 hlineto
            103 42 -72 -122 -121 -42 -71 -103 hvcurveto
            return
          </CharString>
          <CharString index="26">
            -22 -3 -9 -14 -29 hhcurveto
            return
          </CharString>
          <CharString index="27">
            172 vstem
            return
          </CharString>
          <CharString index="28">
            81 21 -69 callgsubr
            return
          </CharString>
          <CharString index="29">
            124 264 124 return
          </CharString>
          <CharString index="30">
            80 450 rmoveto
            -450 172 354 vlineto
            19 3 33 5 61 1 rrcurveto
            144 vlineto
            -163 -4 -105 -46 -17 -7 rrcurveto
            return
          </CharString>
          <CharString index="31">
            93 0 141 143 98 145 140 hstem
            133 172 213 -80 callsubr
            373 -71 callsubr
            -240 -285 -81 -98 81 -284 240 hlineto
            207 110 115 218 219 -110 115 -207 hvcurveto
            -526 vmoveto
            -68 143 106 98 -106 145 -8 callsubr
          </CharString>
          <CharString index="32">
            rmoveto
            146 hlineto
            -130 -267 rlineto
            107 hlineto
            141 291 rlineto
            68 -264 vlineto
            endchar
          </CharString>
          <CharString index="33">
            -71 -48 callsubr
            511 156 hstemhm
            204 137 -137 172 -130 95 hintmask 11110000
            12 -71 callsubr
            -156 192 -511 vlineto
            hintmask 11101000
            172 511 194 156 hlineto
            hintmask 11100100
            -324 -717 rmoveto
            -95 callsubr
          </CharString>
          <CharString index="34">
            rmoveto
            -234 -88 234 hlineto
            endchar
          </CharString>
          <CharString index="35">
            61 -63 callgsubr
            return
          </CharString>
          <CharString index="36">
            667 rmoveto
            return
          </CharString>
          <CharString index="37">
            259 143 rmoveto
            17 18 122 -161 rlineto
            208 hlineto
            -225 279 203 220 rlineto
            -220 hlineto
            -105 -121 rlineto
            return
          </CharString>
          <CharString index="38">
            172 369 vlineto
            4 11 25 3 10 hhcurveto
            80 8 -40 callgsubr
            128 -80 84 -141 vhcurveto
            return
          </CharString>
          <CharString index="39">
            259 155 rmoveto
            512 -172 -667 468 155 vlineto
            return
          </CharString>
          <CharString index="40">
            58 35 rlineto
            -256 93 359 -76 vlineto
            return
          </CharString>
          <CharString index="41">
            52 172 96 175 return
          </CharString>
          <CharString index="42">
            64 169 116 171 return
          </CharString>
          <CharString index="43">
            444 360 rmoveto
            139 -393 -139 202 vlineto
            -207 -219 rlineto
            -141 398 151 -186 vlineto
            return
          </CharString>
          <CharString index="44">
            44 -36 callgsubr
            125 128 133 147 return
          </CharString>
          <CharString index="45">
            76 80 76 60 76 hstemhm
            36 104 -90 90 62 89 -89 104 hintmask 11101100
            234 return
          </CharString>
          <CharString index="46">
            rlineto
            185 hlineto
            return
          </CharString>
          <CharString index="47">
            -159 109 return
          </CharString>
          <CharString index="48">
            52 -160 rlineto
            return
          </CharString>
          <CharString index="49">
            706 rmoveto
            -128 -69 -65 -142 hvcurveto
            -71 -121 69 -378 172 378 101 121 -99 hlineto
            39 20 58 52 8 5 0 -4 14 vhcurveto
            103 vlineto
            6 -18 -34 5 -22 hhcurveto
            return
          </CharString>
          <CharString index="50">
            82 87 82 30 83 hstemhm
            54 243 -92 92 hintmask 11101000
            170 return
          </CharString>
          <CharString index="51">
            740 -71 callsubr
            -160 hlineto
            -30 -35 rlineto
            31 -54 -64 10 -58 hhcurveto
            -143 -170 -59 -281 -94 19 -69 30 -50 hvcurveto
            -103 -120 rlineto
            160 hlineto
            30 35 rlineto
            return
          </CharString>
          <CharString index="52">
            -103 callsubr
            -28 142 rmoveto
            return
          </CharString>
          <CharString index="53">
            hstemhm
            -64 callgsubr
            return
          </CharString>
          <CharString index="54">
            600 -50 callsubr
            -161 hlineto
            -15 -17 rlineto
            16 -33 -40 8 -46 hhcurveto
            -153 -87 -90 -166 -60 11 -49 22 -39 hvcurveto
            -87 -102 rlineto
            160 hlineto
            15 18 rlineto
            return
          </CharString>
          <CharString index="55">
            hhcurveto
            -143 -170 -59 -282 return
          </CharString>
          <CharString index="56">
            143 143 return
          </CharString>
          <CharString index="57">
            499 rmoveto
            return
          </CharString>
          <CharString index="58">
            -195 116 85 101 281 118 return
          </CharString>
          <CharString index="59">
            -194 144 71 -21 return
          </CharString>
          <CharString index="60">
            509 rmoveto
            27 5 29 30 35 vvcurveto
            78 -74 21 -56 -35 -35 -11 -15 -28 vhcurveto
            -78 vlineto
            21 44 22 -2 22 hhcurveto
            22 25 -9 -18 hvcurveto
            return
          </CharString>
          <CharString index="61">
            80 209 79 hstem
            42 93 106 91 vstem
            187 return
          </CharString>
          <CharString index="62">
            133 -95 95 return
          </CharString>
          <CharString index="63">
            -131 -147 -175 262 -132 -138 rrcurveto
            -109 vlineto
            131 147 175 -263 132 138 rrcurveto
            return
          </CharString>
          <CharString index="64">
            527 rmoveto
            return
          </CharString>
          <CharString index="65">
            -20 hstemhm
            45 151 -93 93 return
          </CharString>
          <CharString index="66">
            -39 callsubr
            vhcurveto
            hintmask 01111110
            -39 callgsubr
            hvcurveto
            return
          </CharString>
          <CharString index="67">
            -76 callgsubr
            51 return
          </CharString>
          <CharString index="68">
            vvcurveto
            -64 69 -3 27 return
          </CharString>
          <CharString index="69">
            -130 vlineto
            return
          </CharString>
          <CharString index="70">
            71 -71 107 return
          </CharString>
          <CharString index="71">
            117 hstem
            return
          </CharString>
          <CharString index="72">
            rmoveto
            -33 callsubr
          </CharString>
          <CharString index="73">
            -21 91 79 189 -20 hstem
            171 92 vstem
            263 return
          </CharString>
          <CharString index="74">
            -96 callgsubr
            endchar
          </CharString>
          <CharString index="75">
            -5 76 -72 -21 173 76 60 76 return
          </CharString>
          <CharString index="76">
            -82 -197 134 return
          </CharString>
          <CharString index="77">
            -122 rlineto
            return
          </CharString>
          <CharString index="78">
            268 hmoveto
            499 -172 -499 vlineto
            174 556 -22 callsubr
            return
          </CharString>
          <CharString index="79">
            -144 -138 144 hlineto
            return
          </CharString>
          <CharString index="80">
            -21 callsubr
            hstem
            return
          </CharString>
          <CharString index="81">
            rlineto
            117 hlineto
            return
          </CharString>
          <CharString index="82">
            96 -196 -26 callsubr
            -74 196 rlineto
            return
          </CharString>
          <CharString index="83">
            93 -69 240 -91 91 hintmask 11101000
            return
          </CharString>
          <CharString index="84">
            0 0 151 363 153 return
          </CharString>
          <CharString index="85">
            rmoveto
            131 -176 -131 vlineto
            return
          </CharString>
          <CharString index="86">
            -38 callgsubr
            -20 return
          </CharString>
          <CharString index="87">
            475 201 hstem
            81 676 rmoveto
            18 -201 rlineto
            89 hlineto
            17 201 rlineto
            return
          </CharString>
          <CharString index="88">
            hlineto
            162 93 86 149 148 -93 86 -162 hvcurveto
            -16 -327 rmoveto
            return
          </CharString>
          <CharString index="89">
            -56 callgsubr
            vstem
            return
          </CharString>
          <CharString index="90">
            96 -36 callgsubr
            return
          </CharString>
          <CharString index="91">
            171 vstem
            return
          </CharString>
          <CharString index="92">
            -4 -5 0 3 -27 hvcurveto
            -105 vlineto
            -5 25 27 -1 14 hhcurveto
            115 59 return
          </CharString>
          <CharString index="93">
            -63 callgsubr
            vstem
            return
          </CharString>
          <CharString index="94">
            674 rmoveto
            return
          </CharString>
          <CharString index="95">
            -183 -7 -5 callgsubr
            return
          </CharString>
          <CharString index="96">
            506 rmoveto
            -27 -34 -2 -4 -24 hvcurveto
            return
          </CharString>
          <CharString index="97">
            -33 -15 callgsubr
            return
          </CharString>
          <CharString index="98">
            -37 callsubr
            hstemhm
            return
          </CharString>
          <CharString index="99">
            68 hlineto
            103 42 -72 -122 -121 -42 -71 -103 hvcurveto
            endchar
          </CharString>
          <CharString index="100">
            rmoveto
            125 -69 118 -158 return
          </CharString>
          <CharString index="101">
            244 -94 94 hintmask 11100000
            return
          </CharString>
          <CharString index="102">
            -8 112 294 107 return
          </CharString>
          <CharString index="103">
            -50 callgsubr
            172 return
          </CharString>
          <CharString index="104">
            0 50 -25 callgsubr
            return
          </CharString>
          <CharString index="105">
            85 -21 381 -20 hstem
            return
          </CharString>
          <CharString index="106">
            -21 667 return
          </CharString>
          <CharString index="107">
            -21 359 -20 hstemhm
            44 151 -93 93 hintmask 11100000
            44 return
          </CharString>
          <CharString index="108">
            -608 -421 rmoveto
            143 209 rlineto
            -209 vlineto
            return
          </CharString>
          <CharString index="109">
            -238 -116 121 570 121 hstemhm
            return
          </CharString>
          <CharString index="110">
            -164 -21 178 107 294 112 hstem
            return
          </CharString>
          <CharString index="111">
            94 -7 147 -119 -21 526 147 return
          </CharString>
          <CharString index="112">
            -8 148 192 108 return
          </CharString>
          <CharString index="113">
            -40 -6 124 -97 -21 382 124 return
          </CharString>
          <CharString index="114">
            -60 callsubr
            71 -1 callsubr
            -20 hstemhm
            return
          </CharString>
        <CharString name=".notdef">
          -153 endchar
        </CharString>
        <CharString name="A">
          -79 callsubr
          380 -20 hstem
          -106 callsubr
          endchar
        </CharString>
        <CharString name="AE">
          -8 callgsubr
          hstemhm
          549 172 hintmask 10111000
          494 -71 callsubr
          -469 -667 rlineto
          213 hlineto
          hintmask 01111000
          82 120 rlineto
          229 hlineto
          hintmask 10111000
          -33 callgsubr
          hintmask 01111000
          1 callsubr
          endchar
        </CharString>
        <CharString name="AEacute">
          -8 callgsubr
          57 117 hstemhm
          549 172 hintmask 10111100
          494 -71 callsubr
          -469 -667 rlineto
          213 hlineto
          hintmask 01111100
          82 120 rlineto
          229 hlineto
          hintmask 10111100
          -33 callgsubr
          hintmask 01111100
          1 callsubr
          24 478 -102 callgsubr
        </CharString>
        <CharString name="Aacute">
          -79 callsubr
          437 -36 callsubr
          -106 callsubr
          -112 437 -102 callgsubr
        </CharString>
        <CharString name="Abreve">
          -79 callsubr
          426 -9 callsubr
          hintmask 11010000
          -106 callsubr
          -26 533 rmoveto
          hintmask 11100000
          -81 callsubr
          hintmask 11010000
          -98 callsubr
          endchar
        </CharString>
        <CharString name="Abreveacute">
          -79 callsubr
          413 -37 callsubr
          9 117 hstemhm
          hintmask 11011000
          -106 callsubr
          -26 520 rmoveto
          hintmask 11101000
          -81 callsubr
          hintmask 11011000
          -98 callsubr
          -179 9 -102 callgsubr
        </CharString>
        <CharString name="Abrevedotbelow">
          81 -60 callsubr
          71 -69 callgsubr
          412 -9 callsubr
          307 120 hintmask 11101100
          -106 callsubr
          -26 519 rmoveto
          hintmask 11110100
          -81 callsubr
          hintmask 11101100
          -98 callsubr
          -191 -965 -101 callsubr
          endchar
        </CharString>
        <CharString name="Abrevegrave">
          -79 callsubr
          414 -37 callsubr
          8 117 hstemhm
          hintmask 11011000
          -106 callsubr
          -25 521 rmoveto
          hintmask 11101000
          -81 callsubr
          hintmask 11011000
          -98 callsubr
          -145 125 -94 callgsubr
        </CharString>
        <CharString name="Abrevehookabove">
          -79 callsubr
          412 -37 callsubr
          160 -20 hstemhm
          236 214 hintmask 11011100
          -106 callsubr
          -26 519 rmoveto
          hintmask 11101100
          -81 callsubr
          hintmask 11011100
          -98 callsubr
          -129 85 rmoveto
          -105 callsubr
          endchar
        </CharString>
        <CharString name="Abrevetilde">
          -79 callsubr
          412 -9 callsubr
          hintmask 11010000
          -106 callsubr
          -26 519 rmoveto
          hintmask 11100000
          -81 callsubr
          hintmask 11010000
          -98 callsubr
          21 47 -104 callgsubr
        </CharString>
        <CharString name="Acaron">
          -79 callsubr
          559 -20 hstem
          -106 callsubr
          77 559 rmoveto
          -102 hlineto
          -42 -44 -42 44 rlineto
          -102 hlineto
          120 -30 callsubr
          48 hlineto
          endchar
        </CharString>
        <CharString name="Acircumflex">
          81 -38 callgsubr
          57 0 callgsubr
          hstem
          -106 callsubr
          -43 559 -103 callsubr
          endchar
        </CharString>
        <CharString name="Acircumflexacute">
          -79 callsubr
          484 -36 callsubr
          -106 callsubr
          -43 539 -103 callsubr
          -59 67 -102 callgsubr
        </CharString>
        <CharString name="Acircumflexdotbelow">
          81 -60 callsubr
          0 210 -139 -1 callsubr
          37 -25 callgsubr
          307 120 hintmask 10111100
          448 -71 callsubr
          -162 hlineto
          -265 -667 -61 callsubr
          hintmask 01011100
          52 160 rlineto
          218 hlineto
          hintmask 10111100
          52 -160 -61 callsubr
          -414 287 -86 callgsubr
          -43 539 -103 callsubr
          -204 -863 -101 callsubr
          endchar
        </CharString>
        <CharString name="Acircumflexgrave">
          -79 callsubr
          483 -36 callsubr
          -106 callsubr
          -43 539 -103 callsubr
          -291 183 -94 callgsubr
        </CharString>
        <CharString name="Acircumflexhookabove">
          -79 callsubr
          417 -26 callgsubr
          hstemhm
          hintmask 11100000
          -106 callsubr
          -43 539 -72 callgsubr
          hintmask 11010000
          -83 callsubr
        </CharString>
        <CharString name="Acircumflextilde">
          81 -38 callgsubr
          30 hstem
          -106 callsubr
          -43 532 rmoveto
          -48 hlineto
          -90 callsubr
        </CharString>
        <CharString name="Acute">
          -378 724 -36 callsubr
          59 724 -102 callgsubr
        </CharString>
        <CharString name="Adieresis">
          -79 callsubr
          437 109 hstem
          222 -18 callsubr
          -106 callsubr
          -212 437 -101 callsubr
          170 -109 -101 callsubr
          endchar
        </CharString>
        <CharString name="Adotaccent">
          -79 callsubr
          437 109 hstem
          307 120 vstem
          307 724 -101 callsubr
          141 -166 rmoveto
          -102 callsubr
          185 hlineto
          -414 287 -86 callgsubr
          endchar
        </CharString>
        <CharString name="Adotbelow">
          81 -60 callsubr
          71 -69 callgsubr
          380 -20 hstem
          307 120 vstem
          -106 callsubr
          -127 -446 -101 callsubr
          endchar
        </CharString>
        <CharString name="Agrave">
          -79 callsubr
          437 -36 callsubr
          -106 callsubr
          -84 554 -94 callgsubr
        </CharString>
        <CharString name="Ahookabove">
          -79 callsubr
          587 -20 hstem
          -106 callsubr
          -72 512 rmoveto
          -105 callsubr
          endchar
        </CharString>
        <CharString name="Amacron">
          -79 callsubr
          437 88 hstem
          250 234 vstem
          -106 callsubr
          50 525 -73 callsubr
        </CharString>
        <CharString name="Aogonek">
          81 -31 callgsubr
          108 -69 callgsubr
          380 -20 hstemhm
          hintmask 01111000
          662 -87 rmoveto
          hintmask 10111000
          -67 callgsubr
          39 64 32 35 15 hvcurveto
          -265 667 rlineto
          -102 callsubr
          81 hlineto
          -7 -4 -80 -45 -59 -39 callsubr
          vhcurveto
          hintmask 01111000
          -39 callgsubr
          hvcurveto
          -430 374 -86 callgsubr
          endchar
        </CharString>
        <CharString name="Aring">
          -79 callsubr
          417 55 62 55 hstem
          280 62 50 62 vstem
          -106 callsubr
          -67 589 rmoveto
          -88 callgsubr
        </CharString>
        <CharString name="Atilde">
          -79 callsubr
          hstem
          -106 callsubr
          85 463 -104 callgsubr
        </CharString>
        <CharString name="B">
          6 0 141 144 121 121 140 -54 callsubr
          151 167 -134 134 -134 167 hintmask 11111000
          476 351 rmoveto
          32 11 69 26 92 vvcurveto
          168 -161 19 -103 vhcurveto
          -226 -667 246 hlineto
          hintmask 11110010
          110 167 21 163 91 -46 51 -88 25 hvcurveto
          -217 176 rmoveto
          78 hlineto
          hintmask 11111000
          31 42 -15 -50 -37 -35 -19 -28 hvcurveto
          -88 hlineto
          98 -265 rmoveto
          -98 144 95 hlineto
          hintmask 11110100
          35 54 -16 -55 -53 -43 -21 -43 1 hvcurveto
          endchar
        </CharString>
        <CharString name="C">
          -22 callgsubr
          hstem
          61 -80 callsubr
          -93 callgsubr
          endchar
        </CharString>
        <CharString name="Cacute">
          -22 callgsubr
          49 -36 callsubr
          61 -80 callsubr
          -93 callgsubr
          -80 197 -102 callgsubr
        </CharString>
        <CharString name="Caron">
          -209 745 -21 0 callgsubr
          hstem
          366 846 rmoveto
          -102 hlineto
          -42 -44 -42 44 rlineto
          -102 hlineto
          120 -30 callsubr
          48 hlineto
          endchar
        </CharString>
        <CharString name="Ccaron">
          -22 callgsubr
          171 -20 hstem
          61 -80 callsubr
          -93 callgsubr
          126 319 rmoveto
          -102 hlineto
          -42 -44 -42 44 rlineto
          -102 hlineto
          120 -30 callsubr
          48 hlineto
          endchar
        </CharString>
        <CharString name="Ccedilla">
          -11 -101 -21 649 148 hstem
          61 -80 callsubr
          384 -43 callsubr
          69 62 -13 -35 73 hvcurveto
          149 vlineto
          28 -70 -73 19 -71 -52 callsubr
          -253 136 -74 131 -12 hvcurveto
          -92 -117 -26 callsubr
          61 117 58 5 59 17 57 23 rlinecurve
          149 vlineto
          -35 -73 -62 -13 -69 hhcurveto
          -79 -72 35 158 158 72 35 79 hvcurveto
          endchar
        </CharString>
        <CharString name="Ccircumflex">
          -22 callgsubr
          0 49 -25 callgsubr
          61 172 hintmask 11011000
          -93 callgsubr
          -3 319 rmoveto
          -48 hlineto
          hintmask 10111000
          -87 callgsubr
        </CharString>
        <CharString name="Cdotaccent">
          -22 callgsubr
          49 109 hstem
          61 172 70 120 vstem
          -93 callgsubr
          -81 197 -101 callsubr
          endchar
        </CharString>
        <CharString name="D">
          52 0 141 386 140 hstem
          -64 callgsubr
          213 -80 callsubr
          -82 callsubr
          endchar
        </CharString>
        <CharString name="Dbreve">
          52 0 141 386 140 46 71 -71 107 -54 callsubr
          213 172 hintmask 11011100
          -82 callsubr
          31 679 rmoveto
          hintmask 11101100
          -81 callsubr
          hintmask 11011100
          -98 callsubr
          endchar
        </CharString>
        <CharString name="Dcaron">
          52 0 141 386 140 179 -21 callgsubr
          213 -80 callsubr
          -82 callsubr
          125 705 rmoveto
          -102 hlineto
          -42 -44 -42 44 rlineto
          -102 hlineto
          120 -30 callsubr
          48 hlineto
          endchar
        </CharString>
        <CharString name="Dcroat">
          -76 callsubr
        </CharString>
        <CharString name="Delta">
          76 0 131 536 -20 hstem
          394 -71 callsubr
          -60 hlineto
          -307 -667 rlineto
          675 hlineto
          -338 455 rmoveto
          144 -324 rlineto
          -288 hlineto
          endchar
        </CharString>
        <CharString name="Dieresis">
          -235 724 109 hstem
          68 -18 callsubr
          68 724 -101 callsubr
          170 -109 -101 callsubr
          endchar
        </CharString>
        <CharString name="E">
          -87 callsubr
          hstem
          87 -80 callsubr
          -101 callgsubr
          endchar
        </CharString>
        <CharString name="Eacute">
          -87 callsubr
          57 -36 callsubr
          87 -80 callsubr
          -101 callgsubr
          15 197 -102 callgsubr
        </CharString>
        <CharString name="Ebreve">
          -87 callsubr
          46 71 -71 107 -54 callsubr
          hintmask 11101100
          -101 callgsubr
          106 293 rmoveto
          hintmask 11110100
          -81 callsubr
          hintmask 11101100
          -98 callsubr
          endchar
        </CharString>
        <CharString name="Ecaron">
          -87 callsubr
          179 -21 callgsubr
          vstem
          -101 callgsubr
          212 319 rmoveto
          -102 hlineto
          -42 -44 -42 44 rlineto
          -102 hlineto
          120 -30 callsubr
          48 hlineto
          endchar
        </CharString>
        <CharString name="Ecircumflex">
          -87 callsubr
          0 57 122 -13 callgsubr
          hintmask 11101100
          -101 callgsubr
          92 319 rmoveto
          -48 hlineto
          hintmask 11011100
          -87 callgsubr
        </CharString>
        <CharString name="Ecircumflexacute">
          -87 callsubr
          104 -36 callsubr
          87 -80 callsubr
          -101 callgsubr
          88 299 -103 callsubr
          -59 67 -102 callgsubr
        </CharString>
        <CharString name="Ecircumflexdotbelow">
          -44 -60 callsubr
          50 141 122 141 123 140 0 37 122 -13 callgsubr
          14 120 hintmask 11110111
          -101 callgsubr
          98 299 rmoveto
          -48 hlineto
          hintmask 11101111
          -120 -30 callsubr
          102 hlineto
          42 44 42 -44 rlineto
          102 hlineto
          -204 -863 -101 callsubr
          endchar
        </CharString>
        <CharString name="Ecircumflexgrave">
          -87 callsubr
          103 -36 callsubr
          87 -80 callsubr
          -101 callgsubr
          88 299 -103 callsubr
          -291 183 -94 callgsubr
        </CharString>
        <CharString name="Ecircumflexhookabove">
          -87 callsubr
          37 -26 callgsubr
          -54 callsubr
          hintmask 11110100
          -101 callgsubr
          83 299 -72 callgsubr
          hintmask 11101100
          -83 callsubr
        </CharString>
        <CharString name="Ecircumflextilde">
          -87 callsubr
          0 30 -54 callsubr
          hintmask 11101000
          -101 callgsubr
          89 292 rmoveto
          -48 hlineto
          hintmask 11011000
          -90 callsubr
        </CharString>
        <CharString name="Edieresis">
          -87 callsubr
          57 109 -54 callsubr
          -72 -56 callgsubr
          hintmask 11111010
          -101 callgsubr
          hintmask 11110110
          -72 197 -101 callsubr
          170 -109 -101 callsubr
          endchar
        </CharString>
        <CharString name="Edotaccent">
          -87 callsubr
          57 109 hstem
          -64 callgsubr
          7 120 vstem
          -101 callgsubr
          7 197 -101 callsubr
          endchar
        </CharString>
        <CharString name="Edotbelow">
          -44 -60 callsubr
          50 141 122 141 123 140 hstem
          -64 callgsubr
          13 120 vstem
          -101 callgsubr
          13 -686 -101 callsubr
          endchar
        </CharString>
        <CharString name="Egrave">
          -87 callsubr
          57 -36 callsubr
          87 -80 callsubr
          -101 callgsubr
          65 314 -94 callgsubr
        </CharString>
        <CharString name="Ehookabove">
          -87 callsubr
          207 -21 callgsubr
          vstem
          -101 callgsubr
          56 272 rmoveto
          -105 callsubr
          endchar
        </CharString>
        <CharString name="Emacron">
          -87 callsubr
          57 88 -54 callsubr
          -53 234 hintmask 11111000
          -101 callgsubr
          hintmask 11110100
          181 285 -73 callsubr
        </CharString>
        <CharString name="Eng">
          138 -172 -21 214 -1 callsubr
          -21 callgsubr
          271 -80 callsubr
          530 -71 callsubr
          -400 vlineto
          -271 400 rlineto
          -172 -9 callgsubr
          397 hlineto
          271 -394 rlineto
          -11 vlineto
          -53 -45 -8 -37 vhcurveto
          -124 vlineto
          136 114 39 154 4 hvcurveto
          667 vlineto
          endchar
        </CharString>
        <CharString name="Eogonek">
          -44 -31 callgsubr
          87 141 122 141 123 140 -54 callsubr
          102 191 hintmask 01111110
          501 -87 rmoveto
          hintmask 10111110
          -67 callgsubr
          39 64 32 35 15 hvcurveto
          141 -293 122 254 141 -254 123 293 140 -465 -667 361 vlineto
          -7 -4 -80 -45 -59 -41 callsubr
          endchar
        </CharString>
        <CharString name="Eth">
          -76 callsubr
        </CharString>
        <CharString name="Etilde">
          -87 callsubr
          hstem
          87 -80 callsubr
          -101 callgsubr
          218 223 -104 callgsubr
        </CharString>
        <CharString name="Euro">
          63 -36 callgsubr
          58 93 85 93 57 148 hstem
          128 -80 callsubr
          451 -43 callsubr
          69 62 -13 -35 73 hvcurveto
          149 vlineto
          28 -70 -73 19 -71 hhcurveto
          -116 -135 -39 -166 -46 hvcurveto
          -96 -93 81 hlineto
          -1 -14 0 -14 -15 vvcurveto
          -15 0 -14 1 -13 vhcurveto
          -81 -93 96 hlineto
          -167 46 135 -39 116 hhcurveto
          71 73 19 28 70 hvcurveto
          149 vlineto
          -35 -73 -62 -13 -69 hhcurveto
          -48 -45 13 45 -28 hvcurveto
          194 93 -222 hlineto
          -1 13 -1 14 15 vvcurveto
          15 1 15 1 13 vhcurveto
          222 93 -194 hlineto
          44 28 45 13 48 hhcurveto
          endchar
        </CharString>
        <CharString name="F">
          4 callgsubr
          hstem
          87 -80 callsubr
          -35 callgsubr
          endchar
        </CharString>
        <CharString name="Fdotaccent">
          4 callgsubr
          57 109 -54 callsubr
          -1 120 hintmask 11111000
          -35 callgsubr
          hintmask 11110100
          -1 197 -101 callsubr
          endchar
        </CharString>
        <CharString name="G">
          -63 callsubr
          hstem
          61 171 254 137 vstem
          -98 callgsubr
          endchar
        </CharString>
        <CharString name="Gacute">
          -63 callsubr
          50 -36 callsubr
          61 171 254 137 vstem
          -98 callgsubr
          -307 330 -102 callgsubr
        </CharString>
        <CharString name="Gbreve">
          -63 callsubr
          39 -9 callsubr
          61 171 254 137 hintmask 11101110
          -98 callgsubr
          -216 426 rmoveto
          hintmask 11110110
          -81 callsubr
          hintmask 11101110
          -98 callsubr
          endchar
        </CharString>
        <CharString name="Gcaron">
          -63 callsubr
          172 -20 hstem
          61 171 254 137 vstem
          -98 callgsubr
          -107 452 rmoveto
          -102 hlineto
          -42 -44 -42 44 rlineto
          -102 hlineto
          120 -30 callsubr
          48 hlineto
          endchar
        </CharString>
        <CharString name="Gcircumflex">
          -63 callsubr
          -3 callsubr
          61 171 254 137 hintmask 11101110
          -98 callgsubr
          -241 452 rmoveto
          -48 hlineto
          hintmask 11011110
          -87 callgsubr
        </CharString>
        <CharString name="Gcommaaccent">
          44 -194 144 43 148 125 128 133 147 hstemhm
          61 171 53 -45 callsubr
          68 137 hintmask 11111011
          -98 callgsubr
          -300 -444 rmoveto
          hintmask 11111101
          -95 callsubr
        </CharString>
        <CharString name="Gdotaccent">
          -63 callsubr
          50 109 hstem
          61 171 77 120 57 137 vstem
          -98 callgsubr
          -314 330 -101 callsubr
          endchar
        </CharString>
        <CharString name="Grave">
          -386 724 -36 callsubr
          162 841 -94 callgsubr
        </CharString>
        <CharString name="H">
          81 21 -21 263 141 263 -53 callgsubr
          endchar
        </CharString>
        <CharString name="Hbar">
          142 21 -21 263 141 79 98 86 -20 hstem
          119 172 214 -80 callsubr
          751 581 rmoveto
          -74 86 -172 -86 -214 86 -172 -86 -75 -98 75 -483 172 263 214 -263 172 483 74 hlineto
          -246 -79 rmoveto
          -214 79 214 hlineto
          endchar
        </CharString>
        <CharString name="Hcircumflex">
          81 21 -21 263 141 263 57 122 -53 callgsubr
          -255 179 -103 callsubr
          endchar
        </CharString>
        <CharString name="Hungarumlaut">
          -226 724 -36 callsubr
          60 724 rmoveto
          86 hlineto
          93 117 rlineto
          -117 hlineto
          89 -117 -102 callgsubr
        </CharString>
        <CharString name="I">
          -307 -27 callsubr
          88 -80 callsubr
          260 hmoveto
          667 -172 -667 vlineto
          endchar
        </CharString>
        <CharString name="Iacute">
          -17 callgsubr
          724 -36 callsubr
          88 -80 callsubr
          -66 callgsubr
          -128 724 -102 callgsubr
        </CharString>
        <CharString name="Ibreve">
          -17 callgsubr
          713 -9 callsubr
          hintmask 10100000
          -66 callgsubr
          -45 820 rmoveto
          hintmask 11000000
          -81 callsubr
          hintmask 10100000
          -98 callsubr
          endchar
        </CharString>
        <CharString name="Icircumflex">
          -17 callgsubr
          846 -20 hstem
          88 -80 callsubr
          -66 callgsubr
          -62 846 -103 callsubr
          endchar
        </CharString>
        <CharString name="Idieresis">
          -17 callgsubr
          724 109 hstem
          29 -18 callsubr
          -66 callgsubr
          -231 724 -101 callsubr
          170 -109 -101 callsubr
          endchar
        </CharString>
        <CharString name="Idotaccent">
          -17 callgsubr
          724 109 hstem
          88 -80 callsubr
          -66 callgsubr
          -145 724 -101 callsubr
          endchar
        </CharString>
        <CharString name="Idotbelow">
          -307 7 callsubr
          88 172 -147 120 hintmask 11110000
          260 hmoveto
          667 -172 -667 vlineto
          hintmask 11101000
          25 -159 -101 callsubr
          endchar
        </CharString>
        <CharString name="Igrave">
          -17 callgsubr
          724 -36 callsubr
          88 -80 callsubr
          -66 callgsubr
          -106 841 -94 callgsubr
        </CharString>
        <CharString name="Ihookabove">
          -307 -38 callgsubr
          207 hstem
          88 -80 callsubr
          -66 callgsubr
          -89 799 rmoveto
          -105 callsubr
          endchar
        </CharString>
        <CharString name="Imacron">
          -17 callgsubr
          724 88 hstem
          57 234 vstem
          -66 callgsubr
          31 812 -73 callsubr
        </CharString>
        <CharString name="Iogonek">
          -307 -31 callgsubr
          108 -1 callsubr
          -20 hstemhm
          69 191 -172 172 hintmask 01111000
          209 -87 rmoveto
          hintmask 10111000
          -67 callgsubr
          39 64 32 35 15 hvcurveto
          667 vlineto
          hintmask 10110100
          -172 -667 -29 callgsubr
        </CharString>
        <CharString name="Itilde">
          -17 callgsubr
          hstem
          -66 callgsubr
          69 750 -104 callgsubr
        </CharString>
        <CharString name="J">
          -135 -36 callgsubr
          526 -20 hstem
          251 -80 callsubr
          251 -71 callsubr
          -445 vlineto
          -58 -36 -23 -43 -46 -48 18 45 -49 vhcurveto
          -159 vlineto
          -31 49 57 -21 62 hhcurveto
          84 142 31 209 hvcurveto
          434 vlineto
          endchar
        </CharString>
        <CharString name="Jcircumflex">
          -135 -36 callgsubr
          526 58 0 callgsubr
          hstem
          251 -80 callsubr
          251 -71 callsubr
          -445 vlineto
          -58 -36 -23 -43 -46 -48 18 45 -49 vhcurveto
          -159 vlineto
          -31 49 57 -21 62 hhcurveto
          84 142 31 209 hvcurveto
          434 vlineto
          -61 180 -103 callsubr
          endchar
        </CharString>
        <CharString name="K">
          82 -27 callsubr
          87 -80 callsubr
          -52 callgsubr
          endchar
        </CharString>
        <CharString name="Kcommaaccent">
          82 -48 callsubr
          667 -13 callgsubr
          26 -45 callsubr
          hintmask 11110100
          -52 callgsubr
          -153 -50 rmoveto
          hintmask 11111000
          -95 callsubr
        </CharString>
        <CharString name="L">
          -77 0 155 512 -21 callgsubr
          vstem
          -68 callsubr
          endchar
        </CharString>
        <CharString name="Lacute">
          -77 0 155 569 -36 callsubr
          87 -80 callsubr
          -68 callsubr
          -424 569 -102 callgsubr
        </CharString>
        <CharString name="Lcaron">
          -77 0 155 369 143 1 -13 callgsubr
          53 -45 callsubr
          hintmask 11011000
          -68 callsubr
          hintmask 10110100
          -205 513 rmoveto
          hintmask 11011000
          1 -47 -9 -27 -30 -5 rrcurveto
          -65 vlineto
          hintmask 10111000
          77 58 64 80 -2 hvcurveto
          endchar
        </CharString>
        <CharString name="Lcommaaccent">
          -77 -194 144 50 155 512 -13 callgsubr
          -21 -45 callsubr
          hintmask 11110100
          -68 callsubr
          -279 -205 rmoveto
          hintmask 11101000
          -95 callsubr
        </CharString>
        <CharString name="Ldot">
          -77 0 155 126 109 277 -21 callgsubr
          127 120 vstem
          -68 callsubr
          -169 126 -101 callsubr
          endchar
        </CharString>
        <CharString name="Lslash">
          -77 0 155 512 -20 hstem
          88 -80 callsubr
          260 155 rmoveto
          147 vlineto
          145 80 rlineto
          122 vlineto
          -145 -80 rlineto
          243 -172 -337 vlineto
          -84 -46 rlineto
          -122 vlineto
          84 46 rlineto
          -208 468 155 vlineto
          endchar
        </CharString>
        <CharString name="M">
          175 -27 callsubr
          88 172 308 -80 callsubr
          571 -71 callsubr
          -157 -227 -157 227 rlineto
          -169 -9 callgsubr
          413 hlineto
          154 -221 154 221 rlineto
          -413 172 667 vlineto
          endchar
        </CharString>
        <CharString name="Macron">
          -250 724 88 hstem
          86 234 vstem
          320 812 -73 callsubr
        </CharString>
        <CharString name="N">
          138 -27 callsubr
          87 172 271 -80 callsubr
          -84 callgsubr
          endchar
        </CharString>
        <CharString name="NULL">
          -653 endchar
        </CharString>
        <CharString name="Nacute">
          138 21 -21 724 -36 callsubr
          -64 callgsubr
          271 -80 callsubr
          -84 callgsubr
          -351 57 -102 callgsubr
        </CharString>
        <CharString name="Ncaron">
          138 21 -21 846 -21 callgsubr
          271 -80 callsubr
          -84 callgsubr
          -160 179 rmoveto
          -102 hlineto
          -42 -44 -42 44 rlineto
          -102 hlineto
          120 -30 callsubr
          48 hlineto
          endchar
        </CharString>
        <CharString name="Ncommaaccent">
          138 -48 callsubr
          667 -13 callgsubr
          55 -45 callsubr
          83 172 hintmask 11110110
          -84 callgsubr
          -350 -717 rmoveto
          hintmask 11111010
          -95 callsubr
        </CharString>
        <CharString name="Ntilde">
          138 21 -21 hstem
          -64 callgsubr
          271 -80 callsubr
          -84 callgsubr
          -149 83 -104 callgsubr
        </CharString>
        <CharString name="O">
          98 -6 -78 callgsubr
          hstem
          61 -14 callsubr
          -106 callgsubr
          endchar
        </CharString>
        <CharString name="OE">
          402 0 141 -126 -21 269 141 123 140 7 -20 hstemhm
          60 -51 callgsubr
          174 hintmask 10110110
          981 -43 callsubr
          140 -465 -18 vlineto
          hintmask 01101110
          19 -46 -50 6 -47 hhcurveto
          -143 -170 -59 -281 -281 170 -59 143 47 50 6 19 46 hvcurveto
          hintmask 10110110
          -19 465 141 -293 122 254 141 -254 123 vlineto
          -315 -386 -35 callsubr
        </CharString>
        <CharString name="Oacute">
          98 -6 -78 callgsubr
          50 -36 callsubr
          61 -14 callsubr
          -106 callgsubr
          -49 583 -102 callgsubr
        </CharString>
        <CharString name="Obreve">
          98 -6 -78 callgsubr
          39 -9 callsubr
          -72 callsubr
          hintmask 11011100
          -106 callgsubr
          41 679 rmoveto
          hintmask 11101100
          -81 callsubr
          hintmask 11011100
          -98 callsubr
          endchar
        </CharString>
        <CharString name="Ocircumflex">
          98 -6 -78 callgsubr
          -3 callsubr
          -72 callsubr
          hintmask 11011100
          -84 callsubr
          705 rmoveto
          -48 hlineto
          hintmask 10111100
          -87 callgsubr
        </CharString>
        <CharString name="Ocircumflexacute">
          98 -6 -78 callgsubr
          97 -36 callsubr
          61 -14 callsubr
          -84 callsubr
          685 -103 callsubr
          -59 67 -102 callgsubr
        </CharString>
        <CharString name="Ocircumflexdotbelow">
          98 -60 callsubr
          44 -78 callgsubr
          0 30 -25 callgsubr
          61 172 81 120 81 172 cntrmask 00000111
          hintmask 11101111
          -106 callgsubr
          -60 -300 -101 callsubr
          84 876 rmoveto
          -48 hlineto
          hintmask 11011111
          -87 callgsubr
        </CharString>
        <CharString name="Ocircumflexgrave">
          98 -6 -78 callgsubr
          96 -36 callsubr
          61 -14 callsubr
          -84 callsubr
          685 -103 callsubr
          -291 183 -94 callgsubr
        </CharString>
        <CharString name="Ocircumflexhookabove">
          98 -6 -78 callgsubr
          30 -26 callgsubr
          hstemhm
          -72 callsubr
          hintmask 11101100
          -84 callsubr
          685 -72 callgsubr
          hintmask 11011100
          -83 callsubr
        </CharString>
        <CharString name="Ocircumflextilde">
          98 -6 -78 callgsubr
          0 23 hstemhm
          -72 callsubr
          hintmask 11011000
          -84 callsubr
          678 rmoveto
          -48 hlineto
          hintmask 10111000
          -90 callsubr
        </CharString>
        <CharString name="Odieresis">
          98 -6 -78 callgsubr
          50 109 hstemhm
          61 172 -4 -56 callgsubr
          -4 172 hintmask 11110010
          -106 callgsubr
          hintmask 11101100
          -145 583 -101 callsubr
          170 -109 -101 callsubr
          endchar
        </CharString>
        <CharString name="Odotbelow">
          98 -60 callsubr
          44 -78 callgsubr
          hstem
          61 172 81 120 81 172 cntrmask 00011100
          -106 callgsubr
          -60 -300 -101 callsubr
          endchar
        </CharString>
        <CharString name="Ograve">
          98 -6 -78 callgsubr
          50 -36 callsubr
          61 -14 callsubr
          -106 callgsubr
          -13 700 -94 callgsubr
        </CharString>
        <CharString name="Ohookabove">
          98 -6 -78 callgsubr
          200 -20 hstem
          61 -14 callsubr
          -106 callgsubr
          658 vmoveto
          -105 callsubr
          endchar
        </CharString>
        <CharString name="Ohorn">
          163 -7 -78 callgsubr
          20 -20 hstemhm
          59 -63 callgsubr
          hintmask 10111000
          -99 callgsubr
          hvcurveto
          hintmask 11011000
          159 68 34 73 73 68 -34 -159 -159 -68 -34 -73 vhcurveto
          endchar
        </CharString>
        <CharString name="Ohornacute">
          163 -7 -78 callgsubr
          51 -36 callsubr
          59 -14 callsubr
          -99 callgsubr
          159 68 34 73 73 68 -34 -159 -159 -68 -34 -73 hvcurveto
          -49 584 -102 callgsubr
        </CharString>
        <CharString name="Ohorndotbelow">
          163 -60 callsubr
          43 -78 callgsubr
          20 -20 hstemhm
          59 172 81 120 81 172 cntrmask 00001110
          hintmask 11011110
          -99 callgsubr
          hvcurveto
          hintmask 11101110
          159 68 34 73 73 68 -34 -159 -159 -68 -34 -73 vhcurveto
          -60 -299 -101 callsubr
          endchar
        </CharString>
        <CharString name="Ohorngrave">
          163 -7 -78 callgsubr
          51 -36 callsubr
          59 -14 callsubr
          -99 callgsubr
          159 68 34 73 73 68 -34 -159 -159 -68 -34 -73 hvcurveto
          -13 701 -94 callgsubr
        </CharString>
        <CharString name="Ohornhookabove">
          163 -7 -78 callgsubr
          201 -20 hstem
          59 -14 callsubr
          -99 callgsubr
          159 68 34 73 73 68 -34 -159 -159 -68 -34 -73 hvcurveto
          -1 659 rmoveto
          -105 callsubr
          endchar
        </CharString>
        <CharString name="Ohorntilde">
          163 -7 -78 callgsubr
          hstem
          59 -14 callsubr
          -99 callgsubr
          159 68 34 73 73 68 -34 -159 -159 -68 -34 -73 hvcurveto
          152 610 -104 callgsubr
        </CharString>
        <CharString name="Ohungarumlaut">
          98 -6 -78 callgsubr
          50 -36 callsubr
          61 -14 callsubr
          -106 callgsubr
          -121 583 rmoveto
          86 hlineto
          93 117 rlineto
          -117 hlineto
          89 -117 -102 callgsubr
        </CharString>
        <CharString name="Omacron">
          98 -6 -78 callgsubr
          50 88 hstem
          61 172 24 234 24 172 cntrmask 00011100
          -106 callgsubr
          117 671 -73 callsubr
        </CharString>
        <CharString name="Oslash">
          4 callsubr
          hstemhm
          -72 callsubr
          hintmask 01111000
          -56 callsubr
          hintmask 10111000
          -73 callgsubr
          endchar
        </CharString>
        <CharString name="Oslashacute">
          4 callsubr
          51 117 hstemhm
          -72 callsubr
          hintmask 01111100
          -56 callsubr
          hintmask 10111100
          -73 callgsubr
          -190 391 -102 callgsubr
        </CharString>
        <CharString name="Otilde">
          98 -6 -78 callgsubr
          hstem
          61 -14 callsubr
          -106 callgsubr
          154 609 -104 callgsubr
        </CharString>
        <CharString name="P">
          0 21 -21 198 142 187 140 hstem
          86 172 182 -16 callsubr
          356 -71 callsubr
          -270 -9 callgsubr
          198 98 -19 callsubr
          -82 187 82 2 callgsubr
        </CharString>
        <CharString name="Q">
          94 -190 111 606 147 hstemhm
          61 172 70 247 -35 172 hintmask 11101000
          687 334 rmoveto
          281 -170 59 -143 -143 -170 -59 -281 vhcurveto
          hintmask 11110000
          -236 119 -79 123 -20 vhcurveto
          -133 2 93 -56 152 hhcurveto
          111 vlineto
          -72 -30 34 45 -2 hvcurveto
          hintmask 11101000
          123 20 118 80 234 vvcurveto
          -313 -193 -35 callsubr
        </CharString>
        <CharString name="R">
          -24 callgsubr
          hstem
          -64 callgsubr
          188 -80 callsubr
          -89 callgsubr
          endchar
        </CharString>
        <CharString name="Racute">
          -24 callgsubr
          57 -36 callsubr
          -64 callgsubr
          188 -80 callsubr
          -89 callgsubr
          -110 372 -102 callgsubr
        </CharString>
        <CharString name="Rcaron">
          -24 callgsubr
          179 -21 callgsubr
          188 -80 callsubr
          -89 callgsubr
          110 494 rmoveto
          -102 hlineto
          -42 -44 -42 44 rlineto
          -102 hlineto
          120 -30 callsubr
          48 hlineto
          endchar
        </CharString>
        <CharString name="Rcommaaccent">
          29 -194 144 71 -10 callgsubr
          -54 callsubr
          9 -45 callsubr
          46 172 hintmask 11111011
          -89 callgsubr
          -55 -402 rmoveto
          hintmask 11111101
          -95 callsubr
        </CharString>
        <CharString name="S">
          -6 callgsubr
          hstem
          62 172 135 -80 callsubr
          -96 callsubr
          endchar
        </CharString>
        <CharString name="Sacute">
          -6 callgsubr
          51 -36 callsubr
          62 172 135 -80 callsubr
          -96 callsubr
          -73 51 -102 callgsubr
        </CharString>
        <CharString name="Scaron">
          -6 callgsubr
          173 -20 hstem
          62 172 135 -80 callsubr
          -96 callsubr
          136 173 rmoveto
          -102 hlineto
          -42 -44 -42 44 rlineto
          -102 hlineto
          120 -30 callsubr
          48 hlineto
          endchar
        </CharString>
        <CharString name="Scedilla">
          -51 -101 -21 647 148 hstem
          62 172 135 -80 callsubr
          309 673 rmoveto
          -129 -118 -61 -146 hvcurveto
          -249 307 72 -92 vvcurveto
          -39 -47 -17 -46 -74 -69 25 52 -63 vhcurveto
          -161 vlineto
          49 -34 62 -23 74 -6 -92 -116 rcurveline
          117 hlineto
          62 117 rlineto
          111 14 88 74 107 266 -307 -71 84 vvcurveto
          44 58 12 42 50 53 -17 -31 52 vhcurveto
          150 vlineto
          28 -52 -63 18 -65 hhcurveto
          endchar
        </CharString>
        <CharString name="Scircumflex">
          -6 callgsubr
          0 51 -25 callgsubr
          62 172 135 172 hintmask 11011100
          -96 callsubr
          11 173 rmoveto
          -48 hlineto
          hintmask 10111100
          -87 callgsubr
        </CharString>
        <CharString name="Scommaaccent">
          -51 -194 144 42 -1 callgsubr
          hstemhm
          62 172 -13 -45 callsubr
          15 172 hintmask 11110110
          -96 callsubr
          -50 -723 rmoveto
          hintmask 11101010
          -95 callsubr
        </CharString>
        <CharString name="T">
          -71 21 -21 511 156 -37 callgsubr
          endchar
        </CharString>
        <CharString name="Tbar">
          -71 21 -21 263 98 150 156 hstem
          204 -80 callsubr
          570 511 rmoveto
          156 -558 -156 192 -150 -104 -98 104 -263 172 263 106 98 -106 150 vlineto
          endchar
        </CharString>
        <CharString name="Tcaron">
          -71 21 -21 511 156 179 -20 -37 callgsubr
          -135 179 rmoveto
          -102 hlineto
          -42 -44 -42 44 rlineto
          -102 hlineto
          120 -30 callsubr
          48 hlineto
          endchar
        </CharString>
        <CharString name="Tcommaaccent">
          -74 callsubr
        </CharString>
        <CharString name="Thorn">
          0 21 -21 99 142 187 140 99 -20 hstem
          86 172 170 -16 callsubr
          344 568 rmoveto
          -86 99 -172 -9 callgsubr
          99 86 -19 callsubr
          -70 187 70 2 callgsubr
        </CharString>
        <CharString name="U">
          -17 callsubr
          526 -21 callgsubr
          226 -80 callsubr
          485 -71 callsubr
          -104 callsubr
          380 vlineto
          endchar
        </CharString>
        <CharString name="Uacute">
          -17 callsubr
          583 -36 callsubr
          -64 callgsubr
          226 -80 callsubr
          485 -71 callsubr
          -104 callsubr
          380 vlineto
          -339 57 -102 callgsubr
        </CharString>
        <CharString name="Ubreve">
          -17 callsubr
          572 71 -71 107 -54 callsubr
          226 172 hintmask 10111000
          485 -71 callsubr
          -104 callsubr
          380 vlineto
          -244 153 rmoveto
          hintmask 11011000
          -81 callsubr
          hintmask 10111000
          -98 callsubr
          endchar
        </CharString>
        <CharString name="Ucaron">
          -17 callsubr
          705 -21 callgsubr
          226 -80 callsubr
          485 -71 callsubr
          -104 callsubr
          380 vlineto
          -141 179 rmoveto
          -102 hlineto
          -42 -44 -42 44 rlineto
          -102 hlineto
          120 -30 callsubr
          48 hlineto
          endchar
        </CharString>
        <CharString name="Ucircumflex">
          -17 callsubr
          526 57 122 -21 callgsubr
          226 -80 callsubr
          485 -71 callsubr
          -104 callsubr
          380 vlineto
          -261 179 -103 callsubr
          endchar
        </CharString>
        <CharString name="Udieresis">
          -17 callsubr
          583 109 -54 callsubr
          -32 -56 callgsubr
          -32 172 hintmask 11100100
          485 -71 callsubr
          -104 callsubr
          380 vlineto
          hintmask 11011000
          -430 57 -101 callsubr
          170 -109 -101 callsubr
          endchar
        </CharString>
        <CharString name="Udotbelow">
          96 -60 callsubr
          43 148 526 -21 callgsubr
          53 120 53 172 cntrmask 00011100
          485 -71 callsubr
          -104 callsubr
          380 vlineto
          -345 -826 -101 callsubr
          endchar
        </CharString>
        <CharString name="Ugrave">
          -17 callsubr
          583 -36 callsubr
          -64 callgsubr
          226 -80 callsubr
          485 -71 callsubr
          -104 callsubr
          380 vlineto
          -293 174 -94 callgsubr
        </CharString>
        <CharString name="Uhookabove">
          -17 callsubr
          733 -21 callgsubr
          226 -80 callsubr
          485 -71 callsubr
          -104 callsubr
          380 vlineto
          -289 132 rmoveto
          -105 callsubr
          endchar
        </CharString>
        <CharString name="Uhorn">
          190 -36 callgsubr
          552 -21 callgsubr
          226 -80 callsubr
          -99 callsubr
          endchar
        </CharString>
        <CharString name="Uhornacute">
          190 -36 callgsubr
          583 -36 callsubr
          -64 callgsubr
          226 -80 callsubr
          -99 callsubr
          -554 138 -102 callgsubr
        </CharString>
        <CharString name="Uhorndotbelow">
          190 -60 callsubr
          43 148 552 -21 callgsubr
          53 120 53 172 cntrmask 00011100
          -99 callsubr
          -574 -745 -101 callsubr
          endchar
        </CharString>
        <CharString name="Uhorngrave">
          190 -36 callgsubr
          583 -36 callsubr
          -64 callgsubr
          226 -80 callsubr
          -99 callsubr
          -522 255 -94 callgsubr
        </CharString>
        <CharString name="Uhornhookabove">
          190 -36 callgsubr
          733 -21 callgsubr
          226 -80 callsubr
          -99 callsubr
          -518 213 rmoveto
          -105 callsubr
          endchar
        </CharString>
        <CharString name="Uhorntilde">
          190 -36 callgsubr
          hstem
          -64 callgsubr
          226 -80 callsubr
          -99 callsubr
          -355 164 -104 callgsubr
        </CharString>
        <CharString name="Uhungarumlaut">
          -17 callsubr
          583 -36 callsubr
          -64 callgsubr
          226 -80 callsubr
          485 -71 callsubr
          -104 callsubr
          380 vlineto
          -411 57 rmoveto
          86 hlineto
          93 117 rlineto
          -117 hlineto
          89 -117 -102 callgsubr
        </CharString>
        <CharString name="Umacron">
          -17 callsubr
          583 88 -54 callsubr
          -4 234 -4 172 hintmask 11101000
          485 -71 callsubr
          -104 callsubr
          380 vlineto
          hintmask 11010000
          -168 145 -73 callsubr
        </CharString>
        <CharString name="Uogonek">
          96 -175 66 776 -21 callgsubr
          226 -80 callsubr
          485 -71 callsubr
          -400 vlineto
          -85 -35 -41 -78 -78 -35 41 85 vhcurveto
          400 -172 -380 vlineto
          -173 90 -105 156 -14 vhcurveto
          -23 -14 -56 -40 -49 -39 callsubr
          -39 callgsubr
          vhcurveto
          -67 hlineto
          -67 callgsubr
          38 62 32 35 15 hvcurveto
          136 26 78 101 161 vvcurveto
          380 vlineto
          endchar
        </CharString>
        <CharString name="Uring">
          -17 callsubr
          562 55 62 55 hstem
          -64 callgsubr
          26 62 50 62 26 -80 callsubr
          485 -71 callsubr
          -104 callsubr
          380 vlineto
          -285 208 rmoveto
          -88 callgsubr
        </CharString>
        <CharString name="Utilde">
          -17 callsubr
          hstem
          -64 callgsubr
          226 -80 callsubr
          485 -71 callsubr
          -104 callsubr
          380 vlineto
          -126 83 -104 callgsubr
        </CharString>
        <CharString name="V">
          37 -27 callsubr
          345 195 rmoveto
          -149 472 rlineto
          -184 hlineto
          256 -667 rlineto
          156 hlineto
          254 667 rlineto
          -184 hlineto
          endchar
        </CharString>
        <CharString name="W">
          346 -27 callsubr
          807 -71 callsubr
          -114 -421 -119 421 rlineto
          -148 hlineto
          -119 -421 -114 421 rlineto
          -180 hlineto
          215 -667 rlineto
          157 hlineto
          115 382 115 -382 rlineto
          157 hlineto
          215 667 rlineto
          endchar
        </CharString>
        <CharString name="Wacute">
          346 21 -21 724 -36 callsubr
          807 -71 callsubr
          -114 -421 -119 421 rlineto
          -148 hlineto
          -119 -421 -114 421 rlineto
          -180 hlineto
          215 -667 rlineto
          157 hlineto
          115 382 115 -382 rlineto
          157 hlineto
          215 667 rlineto
          -535 57 -102 callgsubr
        </CharString>
        <CharString name="Wcircumflex">
          346 -38 callgsubr
          57 0 callgsubr
          hstem
          807 -71 callsubr
          -114 -421 -119 421 rlineto
          -148 hlineto
          -119 -421 -114 421 rlineto
          -180 hlineto
          215 -667 rlineto
          157 hlineto
          115 382 115 -382 rlineto
          157 hlineto
          215 667 rlineto
          -463 179 -103 callsubr
          endchar
        </CharString>
        <CharString name="Wdieresis">
          346 21 -21 724 109 hstem
          355 -18 callsubr
          807 -71 callsubr
          -114 -421 -119 421 rlineto
          -148 hlineto
          -119 -421 -114 421 rlineto
          -180 hlineto
          215 -667 rlineto
          157 hlineto
          115 382 115 -382 rlineto
          157 hlineto
          215 667 rlineto
          -632 57 -101 callsubr
          170 -109 -101 callsubr
          endchar
        </CharString>
        <CharString name="Wgrave">
          346 21 -21 724 -36 callsubr
          807 -71 callsubr
          -114 -421 -119 421 rlineto
          -148 hlineto
          -119 -421 -114 421 rlineto
          -180 hlineto
          215 -667 rlineto
          157 hlineto
          115 382 115 -382 rlineto
          157 hlineto
          215 667 rlineto
          -501 174 -94 callgsubr
        </CharString>
        <CharString name="X">
          52 -27 callsubr
          697 hmoveto
          -246 348 226 319 rlineto
          -197 hlineto
          -127 -180 -126 180 rlineto
          -210 hlineto
          232 -329 -237 -338 rlineto
          193 hlineto
          141 200 141 -200 rlineto
          endchar
        </CharString>
        <CharString name="Y">
          76 -27 callsubr
          277 -80 callsubr
          505 -71 callsubr
          -142 -254 -142 254 rlineto
          -209 hlineto
          265 -386 rlineto
          -281 172 281 vlineto
          265 386 rlineto
          endchar
        </CharString>
        <CharString name="Yacute">
          76 21 -21 724 -36 callsubr
          277 -80 callsubr
          505 -71 callsubr
          -142 -254 -142 254 rlineto
          -209 hlineto
          265 -386 rlineto
          -281 172 281 vlineto
          265 386 rlineto
          -404 57 -102 callgsubr
        </CharString>
        <CharString name="Ycircumflex">
          76 21 -21 846 -20 hstem
          277 -80 callsubr
          505 -71 callsubr
          -142 -254 -142 254 rlineto
          -209 hlineto
          265 -386 rlineto
          -281 172 281 vlineto
          265 386 rlineto
          -327 179 -103 callsubr
          endchar
        </CharString>
        <CharString name="Ydieresis">
          76 21 -21 724 109 hstemhm
          219 120 -62 172 -60 120 hintmask 11010000
          505 -71 callsubr
          -142 -254 -142 254 rlineto
          -209 hlineto
          265 -386 rlineto
          -281 172 281 vlineto
          265 386 rlineto
          hintmask 11101000
          -495 57 -101 callsubr
          170 -109 -101 callsubr
          endchar
        </CharString>
        <CharString name="Ydotbelow">
          76 7 callsubr
          277 172 -145 120 hintmask 11110000
          505 -71 callsubr
          -142 -254 -142 254 rlineto
          -209 hlineto
          265 -386 rlineto
          -281 172 281 vlineto
          265 386 rlineto
          hintmask 11101000
          -410 -826 -101 callsubr
          endchar
        </CharString>
        <CharString name="Ygrave">
          76 21 -21 724 -36 callsubr
          277 -80 callsubr
          505 -71 callsubr
          -142 -254 -142 254 rlineto
          -209 hlineto
          265 -386 rlineto
          -281 172 281 vlineto
          265 386 rlineto
          -360 174 -94 callgsubr
        </CharString>
        <CharString name="Yhookabove">
          76 21 -21 874 -20 hstem
          277 -80 callsubr
          505 -71 callsubr
          -142 -254 -142 254 rlineto
          -209 hlineto
          265 -386 rlineto
          -281 172 281 vlineto
          265 386 rlineto
          -355 132 rmoveto
          -105 callsubr
          endchar
        </CharString>
        <CharString name="Ytilde">
          76 21 -21 hstem
          277 -80 callsubr
          505 -71 callsubr
          -142 -254 -142 254 rlineto
          -209 hlineto
          265 -386 rlineto
          -281 172 281 vlineto
          265 386 rlineto
          -195 83 -104 callgsubr
        </CharString>
        <CharString name="Z">
          -23 callsubr
          hstem
          -75 callgsubr
          endchar
        </CharString>
        <CharString name="Zacute">
          -23 callsubr
          57 -36 callsubr
          -75 callgsubr
          -13 573 -102 callgsubr
        </CharString>
        <CharString name="Zcaron">
          -23 callsubr
          179 -20 hstem
          -75 callgsubr
          180 695 rmoveto
          -102 hlineto
          -42 -44 -42 44 rlineto
          -102 hlineto
          120 -30 callsubr
          48 hlineto
          endchar
        </CharString>
        <CharString name="Zdotaccent">
          -23 callsubr
          57 109 hstem
          266 120 vstem
          -75 callgsubr
          -21 573 -101 callsubr
          endchar
        </CharString>
        <CharString name="a">
          -95 -7 131 103 70 75 134 hstem
          -66 callsubr
          vstem
          -107 callgsubr
          endchar
        </CharString>
        <CharString name="aacute">
          -82 callgsubr
          50 -36 callsubr
          -66 callsubr
          vstem
          -107 callgsubr
          -107 331 -102 callgsubr
        </CharString>
        <CharString name="abreve">
          -82 callgsubr
          39 -9 callsubr
          -66 callsubr
          hintmask 11101110
          -107 callgsubr
          -4 427 rmoveto
          hintmask 11110110
          -81 callsubr
          hintmask 11101110
          -98 callsubr
          endchar
        </CharString>
        <CharString name="abreveacute">
          -82 callgsubr
          32 -37 callsubr
          9 117 hstemhm
          -66 callsubr
          hintmask 11101111
          -107 callgsubr
          -4 420 rmoveto
          hintmask 11110111
          -81 callsubr
          hintmask 11101111
          -98 callsubr
          -179 9 -102 callgsubr
        </CharString>
        <CharString name="abrevedotbelow">
          -102 -60 callsubr
          43 131 103 70 75 134 32 -9 callsubr
          52 172 -3 120 -21 175 hintmask 1111011010000000
          -107 callgsubr
          -1 420 rmoveto
          hintmask 1111101010000000
          -81 callsubr
          hintmask 1111010100000000
          -98 callsubr
          -191 -804 -101 callsubr
          endchar
        </CharString>
        <CharString name="abrevegrave">
          -82 callgsubr
          32 -37 callsubr
          8 117 hstemhm
          -66 callsubr
          hintmask 11101111
          -107 callgsubr
          -4 420 rmoveto
          hintmask 11110111
          -81 callsubr
          hintmask 11101111
          -98 callsubr
          -145 125 -94 callgsubr
        </CharString>
        <CharString name="abrevehookabove">
          -82 callgsubr
          32 -37 callsubr
          160 -20 hstemhm
          52 172 -68 214 -50 175 hintmask 1110111010000000
          -107 callgsubr
          5 420 rmoveto
          hintmask 1111011010000000
          -81 callsubr
          hintmask 1110110100000000
          -98 callsubr
          -129 85 rmoveto
          -105 callsubr
          endchar
        </CharString>
        <CharString name="abrevetilde">
          -82 callgsubr
          32 -9 callsubr
          -66 callsubr
          hintmask 11101110
          -107 callgsubr
          4 420 rmoveto
          hintmask 11110110
          -81 callsubr
          hintmask 11101110
          -98 callsubr
          21 47 -104 callgsubr
        </CharString>
        <CharString name="acaron">
          -82 callgsubr
          172 -20 hstem
          -66 callsubr
          vstem
          -107 callgsubr
          96 453 rmoveto
          -102 hlineto
          -42 -44 -42 44 rlineto
          -102 hlineto
          120 -30 callsubr
          48 hlineto
          endchar
        </CharString>
        <CharString name="acircumflex">
          -102 -7 131 0 103 0 70 0 75 0 134 -3 callsubr
          -66 callsubr
          hintmask 1001011110000000
          265 506 rmoveto
          -74 callgsubr
          hvcurveto
          -38 callsubr
          21 52 50 10 50 hhcurveto
          30 37 -15 -61 hvcurveto
          2 -28 7 -1 -24 hhcurveto
          -204 -19 -111 -39 -103 68 -51 146 179 50 60 118 hvcurveto
          118 vlineto
          hintmask 0100101110000000
          -68 callgsubr
          453 rmoveto
          -48 hlineto
          hintmask 1010011110000000
          -87 callgsubr
        </CharString>
        <CharString name="acircumflexacute">
          -82 callgsubr
          104 -36 callsubr
          -66 callsubr
          vstem
          -107 callgsubr
          -24 440 -103 callsubr
          -59 67 -102 callgsubr
        </CharString>
        <CharString name="acircumflexdotbelow">
          -102 -60 callsubr
          43 131 0 103 0 70 0 75 0 134 0 37 -25 callgsubr
          52 172 -9 120 -15 175 hintmask 1100101110100000
          265 506 rmoveto
          -74 callgsubr
          hvcurveto
          -38 callsubr
          21 52 50 10 50 hhcurveto
          30 37 -15 -61 hvcurveto
          2 -28 7 -1 -24 hhcurveto
          -204 -19 -111 -39 -103 68 -51 146 179 50 60 118 hvcurveto
          118 vlineto
          hintmask 1010010110100000
          -68 callgsubr
          440 rmoveto
          -48 hlineto
          hintmask 1101001101000000
          -120 -30 callsubr
          102 hlineto
          42 44 42 -44 rlineto
          102 hlineto
          -204 -702 -101 callsubr
          endchar
        </CharString>
        <CharString name="acircumflexgrave">
          -82 callgsubr
          103 -36 callsubr
          -66 callsubr
          vstem
          -107 callgsubr
          -24 440 -103 callsubr
          -291 183 -94 callgsubr
        </CharString>
        <CharString name="acircumflexhookabove">
          -82 callgsubr
          37 -26 callgsubr
          -91 -20 hstemhm
          52 172 96 152 -152 175 hintmask 1111001010000000
          -107 callgsubr
          -24 440 -55 callsubr
          hintmask 1110011100000000
          -13 -15 -3 -11 vhcurveto
          -59 58 23 vlineto
          0 49 7 48 vvcurveto
          hintmask 1110101100000000
          -83 callsubr
        </CharString>
        <CharString name="acircumflextilde">
          -102 -7 131 0 103 0 70 0 75 0 134 0 30 hstemhm
          -66 callsubr
          hintmask 10010111
          265 506 rmoveto
          -74 callgsubr
          hvcurveto
          -38 callsubr
          21 52 50 10 50 hhcurveto
          30 37 -15 -61 hvcurveto
          2 -28 7 -1 -24 hhcurveto
          -204 -19 -111 -39 -103 68 -51 146 179 50 60 118 hvcurveto
          118 vlineto
          hintmask 01001011
          -68 callgsubr
          433 rmoveto
          -48 hlineto
          hintmask 10100111
          -90 callsubr
        </CharString>
        <CharString name="acute">
          -380 556 -36 callsubr
          59 556 -102 callgsubr
        </CharString>
        <CharString name="adieresis">
          -82 callgsubr
          50 109 hstemhm
          52 172 -94 -56 callgsubr
          -100 175 hintmask 11111001
          -107 callgsubr
          hintmask 11110110
          -193 331 -101 callsubr
          170 -109 -101 callsubr
          endchar
        </CharString>
        <CharString name="adotbelow">
          -102 -60 callsubr
          43 131 103 70 75 134 hstemhm
          52 172 -1 120 -23 175 hintmask 11111010
          -107 callgsubr
          hintmask 11110100
          -100 -384 -101 callsubr
          endchar
        </CharString>
        <CharString name="ae">
          222 -7 callgsubr
          -1 -20 hstemhm
          62 172 96 169 116 171 hintmask 1101001110000000
          -19 callgsubr
          hintmask 1100011110000000
          25 -21 -58 41 -67 hhcurveto
          -74 callgsubr
          hvcurveto
          -38 callsubr
          hintmask 1011001110000000
          21 52 50 10 50 hhcurveto
          30 37 -15 -61 hvcurveto
          2 -28 7 -1 -24 hhcurveto
          -204 -19 -111 -39 -103 68 -51 146 88 45 35 42 24 hvcurveto
          -37 19 55 -40 66 hhcurveto
          77 60 18 34 53 8 callgsubr
          hintmask 1101001110000000
          -42 callgsubr
          hintmask 1011001110000000
          27 17 23 49 11 10 -60 callgsubr
          hintmask 1100101110000000
          170 88 rmoveto
          41 2 20 44 34 hhcurveto
          35 19 -53 -32 2 hvcurveto
          endchar
        </CharString>
        <CharString name="aeacute">
          238 -7 callgsubr
          51 117 hstemhm
          62 172 96 169 116 171 hintmask 1011011110000000
          -19 callgsubr
          25 -21 -58 41 -67 hhcurveto
          -74 callgsubr
          hvcurveto
          -38 callsubr
          21 52 50 10 50 hhcurveto
          30 37 -15 -61 hvcurveto
          2 -28 7 -1 -24 hhcurveto
          -204 -19 -111 -39 -103 68 -51 146 88 45 35 42 24 hvcurveto
          -37 19 55 -40 66 hhcurveto
          77 60 18 34 53 8 callgsubr
          hintmask 1101011110000000
          -42 callgsubr
          hintmask 1011011110000000
          27 17 23 49 11 10 -60 callgsubr
          hintmask 1100111110000000
          170 88 rmoveto
          41 2 20 44 34 hhcurveto
          35 19 -53 -32 2 hvcurveto
          -247 245 -102 callgsubr
        </CharString>
        <CharString name="agrave">
          -82 callgsubr
          50 -36 callsubr
          -66 callsubr
          vstem
          -107 callgsubr
          -47 448 -94 callgsubr
        </CharString>
        <CharString name="ahookabove">
          -82 callgsubr
          200 -20 hstem
          -66 callsubr
          vstem
          -107 callgsubr
          -55 406 rmoveto
          -105 callsubr
          endchar
        </CharString>
        <CharString name="amacron">
          -82 callgsubr
          50 88 hstemhm
          52 172 -66 234 -72 175 hintmask 11111010
          -107 callgsubr
          hintmask 11110100
          69 419 -73 callsubr
        </CharString>
        <CharString name="ampersand">
          0 -8 108 -79 -21 567 104 hstemhm
          55 112 -49 111 106 111 hintmask 10101100
          515 149 rmoveto
          26 48 17 64 8 48 rrcurveto
          -115 hlineto
          0 -6 -35 -9 -29 vhcurveto
          -71 85 -11 11 -10 13 rrcurveto
          72 45 30 36 75 vvcurveto
          94 -59 67 -106 -112 -51 -78 -82 -62 44 -50 9 -12 vhcurveto
          hintmask 10110100
          -107 -68 -9 -68 -57 vvcurveto
          -79 60 -123 157 72 57 26 39 43 vhcurveto
          hintmask 01101100
          45 -57 rlineto
          150 hlineto
          -357 567 rmoveto
          30 23 -23 -28 -23 -9 -18 -57 -33 hvcurveto
          -20 25 -20 23 22 vvcurveto
          30 24 25 29 vhcurveto
          hintmask 10110100
          -8 -467 rmoveto
          -88 -19 66 25 24 -2 40 79 44 hvcurveto
          45 -56 40 -48 46 -54 rrcurveto
          -25 -26 -32 -16 -43 hhcurveto
          endchar
        </CharString>
        <CharString name="aogonek">
          -102 -31 callgsubr
          81 130 103 70 75 134 hstemhm
          -66 callsubr
          hintmask 01111110
          305 -87 rmoveto
          hintmask 10111110
          -67 callgsubr
          39 62 31 35 16 hvcurveto
          108 18 33 57 96 vvcurveto
          118 vlineto
          141 -85 76 -145 -74 callgsubr
          vhcurveto
          -38 callsubr
          21 52 50 10 50 hhcurveto
          30 37 -15 -61 hvcurveto
          2 -28 7 -1 -24 hhcurveto
          -204 -19 -111 -39 -97 60 -51 130 -5 hvcurveto
          -24 -15 -53 -38 -49 -41 callsubr
          -49 270 rmoveto
          -22 -14 -37 -36 -37 -12 22 31 27 17 23 49 11 10 -60 callgsubr
          endchar
        </CharString>
        <CharString name="approxequal">
          -17 535 260 rmoveto
          -44 callsubr
          291 vmoveto
          -44 callsubr
          endchar
        </CharString>
        <CharString name="aring">
          -82 callgsubr
          29 55 62 55 hstemhm
          52 172 -36 62 50 62 -42 175 hintmask 1111110010000000
          -107 callgsubr
          -48 482 rmoveto
          hintmask 1111101100000000
          -88 callgsubr
        </CharString>
        <CharString name="asciicircum">
          -62 489 -21 222 -20 hstem
          330 690 rmoveto
          -72 hlineto
          -138 -222 rlineto
          111 hlineto
          64 119 64 -119 rlineto
          112 hlineto
          endchar
        </CharString>
        <CharString name="asciitilde">
          -130 425 242 rmoveto
          91 vlineto
          -101 -119 -124 219 -102 -119 rrcurveto
          -91 vlineto
          102 119 124 -219 101 119 rrcurveto
          endchar
        </CharString>
        <CharString name="asterisk">
          -240 481 -21 242 -20 hstem
          334 609 rmoveto
          -38 68 -53 -39 5 64 rlineto
          -78 hlineto
          6 -64 -54 39 -38 -68 77 -28 -77 -28 38 -68 54 39 -6 -64 rlineto
          78 hlineto
          -5 64 53 -39 38 68 -76 28 rlineto
          endchar
        </CharString>
        <CharString name="at">
          260 -150 64 108 68 -68 96 101 79 63 91 84 66 hstemhm
          81 66 131 96 181 95 127 64 hintmask 1101111111000000
          507 602 rmoveto
          -200 -226 -173 -247 -244 200 -88 128 88 73 16 26 56 hvcurveto
          11 73 rlineto
          -34 -69 -75 -17 -85 hhcurveto
          -60 -201 48 217 195 173 162 184 125 148 -95 -166 -130 -65 -55 -37 -39 -1 41 19 hvcurveto
          55 15 48 49 vvcurveto
          99 -57 51 -109 -44 -52 -14 -12 -38 vhcurveto
          -14 -87 rlineto
          17 46 50 5 43 hhcurveto
          67 12 -27 -38 1 hvcurveto
          1 -17 -17 1 -17 hhcurveto
          -194 -32 -87 -60 -80 63 -49 101 70 47 28 36 19 hvcurveto
          -24 9 28 -40 50 hhcurveto
          123 53 132 121 238 -204 89 -130 hvcurveto
          hintmask 1011111111000000
          -65 -484 rmoveto
          -33 -35 5 30 43 44 23 86 13 13 0 -1 13 hvcurveto
          -70 -6 -21 -30 -74 hhcurveto
          endchar
        </CharString>
        <CharString name="atilde">
          -82 callgsubr
          hstem
          -66 callsubr
          vstem
          -107 callgsubr
          104 357 -104 callgsubr
        </CharString>
        <CharString name="b">
          -52 -5 callsubr
          185 -20 hstem
          78 6 callgsubr
          314 505 rmoveto
          -13 -38 0 -2 -14 hvcurveto
          187 -171 -520 vlineto
          -86 31 -92 186 89 157 25 236 163 -83 89 -144 vhcurveto
          -12 -401 rmoveto
          -39 -14 21 15 hvcurveto
          256 vlineto
          1 12 3 1 18 hhcurveto
          59 28 -55 -84 -80 -17 -75 -50 hvcurveto
          endchar
        </CharString>
        <CharString name="backslash">
          -223 -77 -21 854 -20 hstem
          -37 756 rmoveto
          368 -854 rlineto
          124 hlineto
          -367 854 rlineto
          endchar
        </CharString>
        <CharString name="bar">
          -162 -78 -21 766 -20 hstem
          185 132 vstem
          317 -99 rmoveto
          766 -132 -766 vlineto
          endchar
        </CharString>
        <CharString name="braceleft">
          3 callgsubr
          91 168 -118 118 -118 188 hintmask 11010000
          259 402 rmoveto
          116 vlineto
          32 0 34 48 vhcurveto
          hintmask 11001000
          22 115 -30 hlineto
          -110 -48 -69 -90 hvcurveto
          -132 vlineto
          hintmask 11100000
          -46 -50 -9 0 vhcurveto
          -116 vlineto
          hintmask 11010000
          0 50 -9 -46 vvcurveto
          -132 vlineto
          -90 48 -69 110 vhcurveto
          hintmask 11001000
          30 115 -22 hlineto
          hintmask 11100000
          -48 0 34 32 hvcurveto
          116 vlineto
          66 -49 31 -46 10 vhcurveto
          46 10 49 31 66 vvcurveto
          endchar
        </CharString>
        <CharString name="braceright">
          3 callgsubr
          76 188 -118 118 -118 168 hintmask 11010000
          146 402 rmoveto
          -66 49 -31 46 -10 vhcurveto
          -46 -10 -49 -31 -66 vvcurveto
          -116 vlineto
          -32 0 -34 -48 vhcurveto
          hintmask 11100000
          -22 -115 30 hlineto
          110 48 69 90 hvcurveto
          132 vlineto
          hintmask 11001000
          46 50 9 0 vhcurveto
          116 vlineto
          hintmask 11100000
          0 -50 9 46 vvcurveto
          132 vlineto
          90 -48 69 -110 vhcurveto
          -30 -115 22 hlineto
          hintmask 11010000
          48 0 -34 -32 hvcurveto
          endchar
        </CharString>
        <CharString name="bracketleft">
          2 callsubr
          119 111 -111 213 hintmask 11100000
          230 575 rmoveto
          hintmask 11010000
          102 121 -213 -812 213 121 hlineto
          hintmask 11100000
          -102 hlineto
          endchar
        </CharString>
        <CharString name="bracketright">
          2 callsubr
          84 213 -111 111 hintmask 11010000
          186 5 rmoveto
          hintmask 11100000
          -102 -121 213 812 -213 -121 hlineto
          hintmask 11010000
          102 hlineto
          endchar
        </CharString>
        <CharString name="breve">
          -197 545 -9 callsubr
          hintmask 01000000
          262 652 rmoveto
          hintmask 10000000
          -81 callsubr
          hintmask 01000000
          -98 callsubr
          endchar
        </CharString>
        <CharString name="bullet">
          -123 165 -21 362 -20 hstem
          446 325 rmoveto
          101 -80 80 -100 -100 -82 -80 -101 -101 82 -80 100 100 80 80 101 vhcurveto
          endchar
        </CharString>
        <CharString name="c">
          -32 callgsubr
          hstem
          58 -80 callsubr
          -92 callsubr
          endchar
        </CharString>
        <CharString name="cacute">
          -32 callgsubr
          50 -36 callsubr
          58 -80 callsubr
          -92 callsubr
          -99 181 -102 callgsubr
        </CharString>
        <CharString name="caron">
          -226 577 -21 0 callgsubr
          hstem
          360 678 rmoveto
          -102 hlineto
          -42 -44 -42 44 rlineto
          -102 hlineto
          120 -30 callsubr
          48 hlineto
          endchar
        </CharString>
        <CharString name="ccaron">
          -32 callgsubr
          172 -20 hstem
          58 -80 callsubr
          -92 callsubr
          105 303 rmoveto
          -102 hlineto
          -42 -44 -42 44 rlineto
          -102 hlineto
          120 -30 callsubr
          48 hlineto
          endchar
        </CharString>
        <CharString name="ccedilla">
          -168 -122 245 252 131 hstem
          58 -80 callsubr
          327 375 rmoveto
          43 35 -9 -22 48 hvcurveto
          128 vlineto
          21 -43 -57 13 -57 hhcurveto
          -153 -85 -91 -166 -149 68 -89 125 -16 hvcurveto
          -92 -117 -26 callsubr
          61 117 43 4 40 11 33 16 rlinecurve
          128 vlineto
          -22 -48 -35 -9 -43 hhcurveto
          -55 -42 38 88 88 42 38 55 hvcurveto
          endchar
        </CharString>
        <CharString name="ccircumflex">
          -32 callgsubr
          -3 callsubr
          58 172 hintmask 11011000
          -92 callsubr
          -25 303 rmoveto
          -48 hlineto
          hintmask 10111000
          -87 callgsubr
        </CharString>
        <CharString name="cdotaccent">
          -32 callgsubr
          50 109 hstemhm
          58 172 -6 120 hintmask 11110000
          -92 callsubr
          hintmask 11101000
          -103 181 -101 callsubr
          endchar
        </CharString>
        <CharString name="cedilla">
          -367 -122 -36 callsubr
          231 -5 rmoveto
          -86 hlineto
          -93 -117 -26 callsubr
          endchar
        </CharString>
        <CharString name="cent">
          -161 -21 callsubr
          hstemhm
          57 172 80 64 -64 143 hintmask 11101000
          452 428 rmoveto
          128 vlineto
          hintmask 11110000
          -23 12 -27 9 -29 5 rrcurveto
          85 -64 -77 vlineto
          -5 -4 0 -5 hhcurveto
          -153 -85 -91 -166 -166 85 -91 153 hvcurveto
          5 4 0 5 hhcurveto
          -76 64 84 vlineto
          hintmask 11101000
          29 6 27 9 23 11 rrcurveto
          128 vlineto
          hintmask 11110000
          -29 -13 -25 -9 -25 -5 rrcurveto
          244 vlineto
          hintmask 11101000
          25 -4 25 -9 29 -14 rrcurveto
          -223 -95 rmoveto
          79 34 38 46 8 vhcurveto
          -249 vlineto
          -46 7 -34 39 78 vvcurveto
          endchar
        </CharString>
        <CharString name="circumflex">
          -226 585 -21 0 callgsubr
          hstem
          235 686 -103 callsubr
          endchar
        </CharString>
        <CharString name="colon">
          -229 35 138 154 138 hstem
          137 144 vstem
          281 465 rmoveto
          -28 callsubr
          -154 vmoveto
          -28 callsubr
          endchar
        </CharString>
        <CharString name="comma">
          -286 -112 196 hstem
          148 84 rmoveto
          -71 callgsubr
          endchar
        </CharString>
        <CharString name="commaaccent">
          -381 -194 144 hstemhm
          83 -45 callsubr
          hintmask 10100000
          121 -50 rmoveto
          hintmask 11000000
          -95 callsubr
        </CharString>
        <CharString name="copyright">
          125 -8 63 79 87 226 86 79 63 hstem
          48 63 99 101 357 63 vstem
          389 -77 callgsubr
          125 153 155 125 124 153 154 125 -124 -155 -153 -125 -125 -154 hvcurveto
          10 392 rmoveto
          41 36 -8 -20 43 hvcurveto
          87 vlineto
          16 -41 -43 11 -42 hhcurveto
          -83 -100 -34 -165 -165 100 -35 83 42 43 11 17 41 hvcurveto
          87 vlineto
          -20 -43 -36 -8 -41 hhcurveto
          -46 -42 20 93 92 42 21 46 hvcurveto
          endchar
        </CharString>
        <CharString name="d">
          -56 -5 callsubr
          185 -20 hstem
          63 -47 callgsubr
          -16 callsubr
          -70 callgsubr
          endchar
        </CharString>
        <CharString name="dagger">
          -179 114 -21 358 89 121 -20 hstem
          193 89 vstem
          394 540 rmoveto
          -112 121 -89 -121 -111 -89 111 -358 89 358 112 hlineto
          endchar
        </CharString>
        <CharString name="daggerdbl">
          -149 21 -21 125 112 158 112 126 -20 hstem
          194 112 vstem
          306 633 rmoveto
          -112 -126 -126 -112 126 -158 -44 callgsubr
          -125 158 125 112 -125 hlineto
          endchar
        </CharString>
        <CharString name="dcaron">
          69 -5 callsubr
          41 144 hstemhm
          63 -47 callgsubr
          171 34 -45 callsubr
          hintmask 11111010
          -70 callgsubr
          296 586 rmoveto
          hintmask 11111100
          -95 callsubr
        </CharString>
        <CharString name="dcroat">
          -10 -5 callsubr
          43 98 44 -20 hstem
          60 -47 callgsubr
          -16 callsubr
          605 646 rmoveto
          -82 44 -171 -44 -106 -98 106 -45 hlineto
          2 -14 -38 0 -13 hhcurveto
          -144 -83 -89 -163 -236 157 -25 89 186 31 92 86 hvcurveto
          378 82 vlineto
          -253 -408 rmoveto
          -15 -14 -21 -39 -50 -17 75 80 84 28 55 59 18 3 -60 callgsubr
          endchar
        </CharString>
        <CharString name="degree">
          -266 448 58 105 58 hstem
          82 61 95 62 vstem
          191 669 rmoveto
          -70 -39 -39 -72 -71 39 -39 70 70 39 39 71 72 -39 39 -70 hvcurveto
          -163 vmoveto
          -33 -15 15 38 37 15 15 33 33 14 -15 -37 -38 -14 -15 -33 hvcurveto
          endchar
        </CharString>
        <CharString name="dieresis">
          -214 556 109 hstem
          69 -18 callsubr
          69 556 -101 callsubr
          170 -109 -101 callsubr
          endchar
        </CharString>
        <CharString name="divide">
          -25 23 117 64 113 65 -36 callsubr
          254 123 vstem
          92 317 rmoveto
          -113 447 113 vlineto
          -285 -294 rmoveto
          123 117 -123 hlineto
          123 359 rmoveto
          -123 -117 123 hlineto
          endchar
        </CharString>
        <CharString name="dollar">
          -61 -87 -21 99 149 636 -20 hstemhm
          72 151 63 61 -61 213 -93 145 hintmask 11111010
          551 189 rmoveto
          150 -111 41 -93 25 vhcurveto
          119 vlineto
          hintmask 11110100
          49 -1 52 -17 51 -30 rrcurveto
          150 vlineto
          hintmask 11111010
          -45 24 -52 16 -55 5 rrcurveto
          105 -61 -106 vlineto
          -116 -9 -98 -63 -133 vvcurveto
          -148 118 -35 96 -23 vhcurveto
          -119 vlineto
          -74 -69 25 52 -63 hvcurveto
          -161 vlineto
          54 -38 68 -23 84 -4 rrcurveto
          -99 61 101 vlineto
          114 13 90 74 109 vvcurveto
          -328 279 rmoveto
          32 30 14 33 6 vhcurveto
          -99 vlineto
          -37 11 -26 12 24 vvcurveto
          124 -322 rmoveto
          98 vlineto
          35 -11 24 -13 -24 vvcurveto
          -29 -27 -14 -32 -7 vhcurveto
          endchar
        </CharString>
        <CharString name="dong">
          -206 92 76 31 74 194 70 -70 192 -94 65 hstemhm
          56 113 79 113 hintmask 11101110
          361 630 rmoveto
          hintmask 11010110
          29 -113 vlineto
          hintmask 11101110
          -29 -69 -65 69 -29 vlineto
          1 -9 -25 0 -8 hhcurveto
          -95 -55 -59 -107 -156 103 -16 59 123 20 61 56 hvcurveto
          249 54 65 vlineto
          -167 -333 rmoveto
          -10 -9 -14 -25 -33 -12 49 53 55 19 37 39 12 2 -1 -1 7 vhcurveto
          -190 -373 rmoveto
          315 76 -315 hlineto
          endchar
        </CharString>
        <CharString name="dotaccent">
          -310 556 109 hstem
          114 120 vstem
          114 556 -101 callsubr
          endchar
        </CharString>
        <CharString name="dotbelowcmb">
          -653 -60 callsubr
          hstem
          -276 120 vstem
          -276 -159 -101 callsubr
          endchar
        </CharString>
        <CharString name="dotlessi">
          -292 -3 callgsubr
          96 -80 callsubr
          268 hmoveto
          499 -172 -499 vlineto
          endchar
        </CharString>
        <CharString name="dotlessj">
          -323 -172 -21 692 -20 hstem
          85 -80 callsubr
          85 -50 callsubr
          -507 vlineto
          -53 -45 -8 -37 vhcurveto
          -124 vlineto
          138 116 40 160 hvcurveto
          492 vlineto
          endchar
        </CharString>
        <CharString name="e">
          -82 -7 -79 callgsubr
          hstem
          -65 callsubr
          vstem
          -107 callsubr
          endchar
        </CharString>
        <CharString name="eacute">
          -7 -79 callgsubr
          49 -36 callsubr
          -65 callsubr
          vstem
          -107 callsubr
          -117 243 -102 callgsubr
        </CharString>
        <CharString name="ebreve">
          -7 -79 callgsubr
          38 -9 callsubr
          -65 callsubr
          hintmask 11101110
          -107 callsubr
          -16 339 rmoveto
          hintmask 11110110
          -81 callsubr
          hintmask 11101110
          -98 callsubr
          endchar
        </CharString>
        <CharString name="ecaron">
          -7 -79 callgsubr
          171 -20 hstem
          -65 callsubr
          vstem
          -107 callsubr
          87 365 rmoveto
          -102 hlineto
          -42 -44 -42 44 rlineto
          -102 hlineto
          120 -30 callsubr
          48 hlineto
          endchar
        </CharString>
        <CharString name="ecircumflex">
          -7 -79 callgsubr
          0 49 -25 callgsubr
          -65 callsubr
          hintmask 11101110
          -107 callsubr
          -34 365 rmoveto
          -48 hlineto
          hintmask 11011110
          -87 callgsubr
        </CharString>
        <CharString name="ecircumflexacute">
          -7 -79 callgsubr
          103 -36 callsubr
          -65 callsubr
          vstem
          -107 callsubr
          -35 352 -103 callsubr
          -59 67 -102 callgsubr
        </CharString>
        <CharString name="ecircumflexdotbelow">
          -60 callsubr
          43 -79 callgsubr
          0 36 -25 callgsubr
          64 169 -6 120 2 171 hintmask 1111011010000000
          -107 callsubr
          hintmask 1110110110000000
          -122 -472 -101 callsubr
          84 715 -103 callsubr
          endchar
        </CharString>
        <CharString name="ecircumflexgrave">
          -7 -79 callgsubr
          102 -36 callsubr
          -65 callsubr
          vstem
          -107 callsubr
          -35 352 -103 callsubr
          -291 183 -94 callgsubr
        </CharString>
        <CharString name="ecircumflexhookabove">
          -7 -79 callgsubr
          36 -26 callgsubr
          -91 -20 hstemhm
          64 169 116 131 -131 171 hintmask 1111001010000000
          -107 callsubr
          -42 352 -55 callsubr
          hintmask 1110011100000000
          -13 -15 -3 -11 vhcurveto
          -59 58 23 vlineto
          0 49 7 48 vvcurveto
          hintmask 1110101100000000
          -83 callsubr
        </CharString>
        <CharString name="ecircumflextilde">
          -7 -79 callgsubr
          0 29 hstemhm
          -65 callsubr
          hintmask 11101100
          -107 callsubr
          -34 345 rmoveto
          -48 hlineto
          hintmask 11011100
          -90 callsubr
        </CharString>
        <CharString name="edieresis">
          -7 -79 callgsubr
          49 109 hstemhm
          64 169 -87 -56 callgsubr
          -87 171 hintmask 11111001
          -107 callsubr
          hintmask 11110110
          -203 243 -101 callsubr
          170 -109 -101 callsubr
          endchar
        </CharString>
        <CharString name="edotaccent">
          -7 -79 callgsubr
          49 109 hstemhm
          64 169 1 120 -5 171 hintmask 11111010
          -107 callsubr
          hintmask 11111100
          -115 243 -101 callsubr
          endchar
        </CharString>
        <CharString name="edotbelow">
          -60 callsubr
          43 -79 callgsubr
          hstemhm
          64 169 -1 120 -3 171 hintmask 11111010
          -107 callsubr
          hintmask 11110100
          -117 -472 -101 callsubr
          endchar
        </CharString>
        <CharString name="egrave">
          -7 -79 callgsubr
          56 -36 callsubr
          -65 callsubr
          vstem
          -107 callsubr
          -67 367 -94 callgsubr
        </CharString>
        <CharString name="ehookabove">
          -7 -79 callgsubr
          199 -20 hstem
          -65 callsubr
          vstem
          -107 callsubr
          -64 318 rmoveto
          -105 callsubr
          endchar
        </CharString>
        <CharString name="eight">
          -37 -8 141 149 141 112 141 hstemhm
          58 173 -147 167 115 167 -147 174 hintmask 11101100
          427 359 rmoveto
          52 14 54 49 70 vvcurveto
          126 -82 58 -142 -142 -83 -58 -126 -70 55 -49 52 -14 vhcurveto
          hintmask 11110010
          -71 -19 -62 -63 -83 vvcurveto
          -136 95 -66 156 156 95 66 136 83 -63 63 -70 19 vhcurveto
          -118 176 rmoveto
          hintmask 11101100
          39 18 -33 -24 -38 -32 -17 -25 -25 -33 17 38 24 18 33 40 hvcurveto
          -402 vmoveto
          hintmask 11110010
          -55 -23 38 45 28 23 38 55 54 23 -38 -28 -45 -23 -38 -54 hvcurveto
          endchar
        </CharString>
        <CharString name="eight.denominator">
          -310 -5 -62 callsubr
          192 -83 callgsubr
          hintmask 11110010
          -100 callgsubr
          endchar
        </CharString>
        <CharString name="eight.inferior">
          -310 -155 -62 callsubr
          42 -83 callgsubr
          hintmask 11110010
          -100 callgsubr
          endchar
        </CharString>
        <CharString name="eight.numerator">
          -310 310 -62 callsubr
          507 -83 callgsubr
          hintmask 11110010
          -100 callgsubr
          endchar
        </CharString>
        <CharString name="eight.superior">
          -310 458 -62 callsubr
          655 -83 callgsubr
          hintmask 11110010
          -100 callgsubr
          endchar
        </CharString>
        <CharString name="ellipsis">
          250 0 138 hstem
          107 144 130 144 131 144 vstem
          656 138 rmoveto
          -138 144 138 vlineto
          -693 7 callgsubr
          274 7 callgsubr
          endchar
        </CharString>
        <CharString name="emacron">
          -7 -79 callgsubr
          49 88 hstemhm
          64 169 -57 234 -61 171 hintmask 11111010
          -107 callsubr
          hintmask 11110100
          61 331 -73 callsubr
        </CharString>
        <CharString name="emdash">
          238 232 -36 callsubr
          79 349 rmoveto
          -117 733 117 vlineto
          endchar
        </CharString>
        <CharString name="endash">
          -93 232 -36 callsubr
          69 349 rmoveto
          -117 420 117 vlineto
          endchar
        </CharString>
        <CharString name="eng">
          -14 -172 -21 214 -43 callgsubr
          hstem
          82 -28 callgsubr
          330 506 rmoveto
          -136 -108 -58 -2 -4 hvcurveto
          -446 172 370 vlineto
          4 15 15 2 20 hhcurveto
          79 5 -32 -23 hvcurveto
          -329 vlineto
          -53 -45 -8 -37 vhcurveto
          -124 vlineto
          138 116 40 160 hvcurveto
          287 vlineto
          133 -89 79 -141 vhcurveto
          endchar
        </CharString>
        <CharString name="eogonek">
          -31 callgsubr
          80 -79 callgsubr
          hstemhm
          -65 callsubr
          hintmask 01111110
          408 -87 rmoveto
          hintmask 10111110
          -10 -4 -6 -12 -19 hhcurveto
          -21 2 28 2 40 60 39 77 45 8 callgsubr
          -52 -55 35 48 hvcurveto
          284 hlineto
          2 16 1 18 20 vvcurveto
          125 -69 118 -158 -165 -64 -114 -148 -212 137 -40 100 18 15 1 2 14 vhcurveto
          -20 -12 -60 -40 -52 -41 callsubr
          -238 400 rmoveto
          41 2 20 44 34 hhcurveto
          35 19 -53 -32 2 hvcurveto
          endchar
        </CharString>
        <CharString name="equal">
          -15 139 117 85 -36 callsubr
          122 256 rmoveto
          -117 393 117 vlineto
          -393 202 rmoveto
          -117 393 117 vlineto
          endchar
        </CharString>
        <CharString name="eth">
          -32 5 callsubr
          236 -20 32 -20 hstemhm
          57 173 149 171 hintmask 11011100
          445 605 rmoveto
          33 26 -45 57 -52 -41 rlineto
          hintmask 11101100
          24 -52 -54 5 -36 hhcurveto
          -38 -42 -5 -10 -31 hvcurveto
          -147 vlineto
          13 46 30 2 21 3 2 0 3 hhcurveto
          -30 -24 45 -56 74 58 31 -16 24 -25 5 -39 rlinecurve
          -41 callgsubr
          153 -46 90 -59 53 hvcurveto
          -142 -465 -34 callgsubr
        </CharString>
        <CharString name="etilde">
          -7 -79 callgsubr
          hstem
          -65 callsubr
          vstem
          -107 callsubr
          97 269 -104 callgsubr
        </CharString>
        <CharString name="exclam">
          -222 0 128 539 -20 hstem
          147 151 vstem
          145 hmoveto
          155 128 -155 hlineto
          142 63 rmoveto
          22 476 rlineto
          -173 hlineto
          22 -476 rlineto
          endchar
        </CharString>
        <CharString name="exclamdown">
          -222 -147 -21 539 128 hstem
          143 151 vstem
          296 -50 callsubr
          -155 -128 155 hlineto
          -142 -63 rmoveto
          -22 -476 rlineto
          173 hlineto
          -22 476 rlineto
          endchar
        </CharString>
        <CharString name="f">
          -274 21 -21 378 121 97 110 hstem
          109 -80 callsubr
          308 -58 callsubr
          endchar
        </CharString>
        <CharString name="fi">
          61 21 -21 378 121 0 57 40 110 hstemhm
          110 172 199 172 hintmask 11011100
          309 -58 callsubr
          172 -706 rmoveto
          499 172 -499 vlineto
          hintmask 10111100
          -174 556 rmoveto
          131 176 -131 vlineto
          endchar
        </CharString>
        <CharString name="five">
          -28 -8 153 160 153 56 154 hstem
          373 -16 callsubr
          308 458 rmoveto
          -17 -16 0 -2 -15 hvcurveto
          5 58 rlineto
          244 154 -394 hlineto
          -36 -323 95 -69 rlineto
          0 47 31 73 -2 vhcurveto
          44 35 -26 -55 -36 -24 -43 -62 -68 -73 33 33 -52 hvcurveto
          -163 vlineto
          -29 58 74 -27 84 hhcurveto
          114 120 44 173 175 -93 74 -143 hvcurveto
          endchar
        </CharString>
        <CharString name="five.denominator">
          -327 -5 -57 callsubr
          246 -91 callsubr
        </CharString>
        <CharString name="five.inferior">
          -327 -155 -57 callsubr
          96 -91 callsubr
        </CharString>
        <CharString name="five.numerator">
          -327 310 -57 callsubr
          561 -91 callsubr
        </CharString>
        <CharString name="five.superior">
          -327 458 -57 callsubr
          709 -91 callsubr
        </CharString>
        <CharString name="fiveeighths">
          214 -32 callsubr
          -53 82 87 82 30 83 11 -20 hstemhm
          90 243 -92 92 220 104 -90 90 62 89 -89 104 hintmask 1010111001101000
          206 561 rmoveto
          -10 -8 0 -1 -8 hvcurveto
          2 31 rlineto
          132 83 -212 hlineto
          -20 -174 51 -37 rlineto
          0 26 17 39 -1 vhcurveto
          24 19 -14 -30 -19 -13 -24 -34 hvcurveto
          hintmask 0110110110101000
          -36 -40 18 18 -28 hvcurveto
          -88 vlineto
          -15 32 39 -15 46 hhcurveto
          61 65 24 93 94 -50 40 -77 hvcurveto
          426 124 -80 callgsubr
          25 -493 rmoveto
          28 8 29 26 38 vvcurveto
          hintmask 1011011010011000
          67 -44 32 -76 -76 -45 -32 -67 -38 30 -26 28 -8 vhcurveto
          hintmask 1011011010100100
          -100 callgsubr
          endchar
        </CharString>
        <CharString name="fl">
          61 21 -21 378 121 0 97 0 110 hstemhm
          109 172 199 172 hintmask 11011100
          308 706 rmoveto
          hintmask 10101100
          -128 -69 -65 -142 hvcurveto
          -71 hlineto
          hintmask 11011100
          -121 69 -378 172 378 101 121 -99 vlineto
          39 20 58 52 8 5 0 -4 14 vhcurveto
          103 vlineto
          6 -18 -34 5 -22 hhcurveto
          172 -706 rmoveto
          689 172 -689 vlineto
          endchar
        </CharString>
        <CharString name="florin">
          -293 -123 108 407 113 77 108 hstemhm
          4 240 -130 240 hintmask 11101000
          318 582 rmoveto
          8 14 -1 -4 14 hvcurveto
          107 vlineto
          4 -14 -35 2 -16 hhcurveto
          -115 -58 -63 -122 -2 hvcurveto
          -84 -113 84 -321 hlineto
          -86 -37 0 -37 vhcurveto
          hintmask 11110000
          -15 callsubr
          67 127 hvcurveto
          321 vlineto
          hintmask 11101000
          110 113 hlineto
          hintmask 11110000
          -110 hlineto
          75 3 34 2 37 hhcurveto
          endchar
        </CharString>
        <CharString name="four">
          -35 21 -21 170 146 351 -20 hstem
          310 -16 callsubr
          481 -71 callsubr
          -150 hlineto
          -292 -365 rlineto
          -132 271 -170 171 170 80 146 -80 vlineto
          -171 hmoveto
          -88 hlineto
          88 117 rlineto
          endchar
        </CharString>
        <CharString name="four.denominator">
          -321 21 -21 91 79 189 -20 hstem
          170 92 vstem
          262 359 -85 callsubr
        </CharString>
        <CharString name="four.inferior">
          -321 -129 -34 callsubr
          209 -85 callsubr
        </CharString>
        <CharString name="four.numerator">
          -321 336 -34 callsubr
          674 -85 callsubr
        </CharString>
        <CharString name="four.superior">
          -321 484 -34 callsubr
          822 -85 callsubr
        </CharString>
        <CharString name="fraction">
          -261 -1 -21 707 -20 hstem
          366 685 -80 callgsubr
          endchar
        </CharString>
        <CharString name="g">
          -90 -49 callsubr
          hstem
          62 172 98 -16 callsubr
          -97 callsubr
          endchar
        </CharString>
        <CharString name="gbreve">
          -96 -49 callsubr
          39 -9 callsubr
          62 172 98 171 hintmask 11101110
          -97 callsubr
          1 303 rmoveto
          hintmask 11110110
          -81 callsubr
          hintmask 11101110
          -98 callsubr
          endchar
        </CharString>
        <CharString name="gcaron">
          -96 -49 callsubr
          172 -20 hstem
          62 172 98 -16 callsubr
          -97 callsubr
          106 329 rmoveto
          -102 hlineto
          -42 -44 -42 44 rlineto
          -102 hlineto
          120 -30 callsubr
          48 hlineto
          endchar
        </CharString>
        <CharString name="gcircumflex">
          -96 -195 116 0 85 0 101 281 118 -3 callsubr
          62 172 98 171 hintmask 01010111
          302 506 rmoveto
          -92 -148 -25 -230 -158 85 -87 136 11 24 1 1 13 hvcurveto
          -46 -4 -19 -41 -72 hhcurveto
          -39 -37 5 27 -47 hvcurveto
          -122 vlineto
          hintmask 10110111
          -15 47 56 -11 54 hhcurveto
          198 35 144 71 hvcurveto
          311 vlineto
          85 -41 90 -160 vhcurveto
          30 -396 rmoveto
          -3 -13 -3 0 -9 hhcurveto
          -46 -27 62 80 76 20 63 39 38 1 -24 -15 hvcurveto
          -19 329 rmoveto
          -48 hlineto
          hintmask 10101111
          -87 callgsubr
        </CharString>
        <CharString name="gcommaaccent">
          -88 -49 callsubr
          50 144 hstemhm
          62 172 5 95 -95 133 -40 171 hintmask 11111001
          -97 callsubr
          hintmask 11111100
          2 207 rmoveto
          hintmask 11111010
          -1 47 9 27 30 5 rrcurveto
          65 vlineto
          -77 -58 -64 -80 2 hvcurveto
          endchar
        </CharString>
        <CharString name="gdotaccent">
          -96 -49 callsubr
          50 109 hstemhm
          62 172 -1 120 -21 171 hintmask 11111010
          -97 callsubr
          hintmask 11110100
          -99 207 -101 callsubr
          endchar
        </CharString>
        <CharString name="germandbls">
          -27 1 125 -105 -21 287 114 156 119 hstemhm
          88 143 175 139 -114 143 hintmask 01111100
          452 351 rmoveto
          39 12 54 54 75 vvcurveto
          94 -71 90 -163 -102 -121 -45 -218 vhcurveto
          -413 143 427 vlineto
          110 48 20 45 63 19 -34 -45 -67 -87 -10 -47 vhcurveto
          -114 vlineto
          hintmask 10111010
          56 -2 103 -5 -70 vvcurveto
          -68 -89 -17 -70 1 vhcurveto
          -125 vlineto
          174 -8 128 54 151 vvcurveto
          86 -54 47 -68 20 vhcurveto
          endchar
        </CharString>
        <CharString name="grave">
          -374 563 -36 callsubr
          162 680 -94 callgsubr
        </CharString>
        <CharString name="greater">
          7 56 -21 465 -20 hstem
          116 364 rmoveto
          246 -96 -246 -97 rlineto
          -136 vlineto
          421 187 rlineto
          91 vlineto
          -421 187 rlineto
          endchar
        </CharString>
        <CharString name="greaterequal">
          -73 96 105 409 -20 hstem
          484 201 rmoveto
          -377 -105 377 hlineto
          -377 402 rmoveto
          206 -75 -206 -76 rlineto
          -113 vlineto
          377 147 rlineto
          83 vlineto
          -377 146 rlineto
          endchar
        </CharString>
        <CharString name="guillemotleft">
          5 -2 callsubr
          610 445 -55 callgsubr
          -60 190 -55 callgsubr
          endchar
        </CharString>
        <CharString name="guillemotright">
          18 -2 callsubr
          234 255 -54 callgsubr
          424 -190 -54 callgsubr
          endchar
        </CharString>
        <CharString name="guilsinglleft">
          -253 -2 callsubr
          365 445 -55 callgsubr
          endchar
        </CharString>
        <CharString name="guilsinglright">
          -241 -2 callsubr
          221 255 -54 callgsubr
          endchar
        </CharString>
        <CharString name="h">
          -10 -48 callgsubr
          183 -20 hstem
          101 -28 callgsubr
          358 -11 callsubr
          189 -172 -689 -69 callsubr
          endchar
        </CharString>
        <CharString name="hbar">
          21 -48 callgsubr
          40 98 45 -20 hstem
          114 -28 callgsubr
          371 -11 callsubr
          46 118 98 -118 45 -172 -45 -81 -98 81 -546 -69 callsubr
          endchar
        </CharString>
        <CharString name="hcircumflex">
          -26 -48 callgsubr
          183 35 0 callgsubr
          hstem
          101 -28 callgsubr
          358 -11 callsubr
          189 -172 -689 -69 callsubr
          -146 340 -103 callsubr
          endchar
        </CharString>
        <CharString name="hookcmb">
          -653 577 -21 150 -20 hstem
          -251 631 rmoveto
          -105 callsubr
          endchar
        </CharString>
        <CharString name="horncmb">
          -653 441 75 136 -20 hstem
          -182 652 -57 callgsubr
          -28 hhcurveto
          -28 -23 16 0 hvcurveto
          -75 vlineto
          0 28 -16 31 30 33 12 27 43 vhcurveto
          42 27 60 38 0 vvcurveto
          endchar
        </CharString>
        <CharString name="hungarumlaut">
          -222 556 -36 callsubr
          60 556 rmoveto
          86 hlineto
          93 117 rlineto
          -117 hlineto
          89 -117 -102 callgsubr
        </CharString>
        <CharString name="hyphen">
          -189 251 -36 callsubr
          79 368 rmoveto
          -117 305 117 vlineto
          endchar
        </CharString>
        <CharString name="i">
          -16 callgsubr
          556 131 hstem
          96 -80 callsubr
          -29 callsubr
          endchar
        </CharString>
        <CharString name="iacute">
          -16 callgsubr
          556 -12 callgsubr
          -128 556 -102 callgsubr
        </CharString>
        <CharString name="ibreve">
          -16 callgsubr
          545 -9 callsubr
          hintmask 10100000
          -58 callgsubr
          -45 652 rmoveto
          hintmask 11000000
          -81 callsubr
          hintmask 10100000
          -98 callsubr
          endchar
        </CharString>
        <CharString name="icircumflex">
          -16 callgsubr
          678 -20 hstem
          96 -80 callsubr
          -58 callgsubr
          -62 678 -103 callsubr
          endchar
        </CharString>
        <CharString name="idieresis">
          -16 callgsubr
          556 109 hstem
          37 -18 callsubr
          -58 callgsubr
          -231 556 -101 callsubr
          170 -109 -101 callsubr
          endchar
        </CharString>
        <CharString name="idotbelow">
          -294 -60 callsubr
          71 -21 556 131 hstemhm
          96 172 -146 120 hintmask 11110000
          -29 callsubr
          hintmask 11101000
          28 -715 -101 callsubr
          endchar
        </CharString>
        <CharString name="igrave">
          -16 callgsubr
          563 -12 callgsubr
          -106 680 -94 callgsubr
        </CharString>
        <CharString name="ihookabove">
          -16 callgsubr
          499 207 hstem
          96 -80 callsubr
          179 631 rmoveto
          -105 callsubr
          -83 -631 rmoveto
          499 172 -499 vlineto
          endchar
        </CharString>
        <CharString name="imacron">
          -16 callgsubr
          556 88 hstem
          65 234 vstem
          -58 callgsubr
          31 644 -73 callsubr
        </CharString>
        <CharString name="infinity">
          82 208 77 161 78 hstem
          58 89 440 88 vstem
          525 524 rmoveto
          -69 -53 -46 -44 -37 hvcurveto
          46 -36 -50 44 -73 hhcurveto
          -59 -90 -43 -116 -115 90 -42 59 73 49 43 46 37 hvcurveto
          -44 37 53 -45 69 hhcurveto
          61 89 42 115 116 -89 43 -61 hvcurveto
          -313 -239 rmoveto
          -4 -61 1 79 80 61 1 4 43 37 -42 -39 28 hvcurveto
          -38 -28 -37 -42 -43 hhcurveto
          310 hmoveto
          -45 -38 41 39 -27 hvcurveto
          39 26 38 42 46 hhcurveto
          2 63 -1 -80 -79 -63 -1 -2 hvcurveto
          endchar
        </CharString>
        <CharString name="integral">
          -283 -122 108 597 108 hstemhm
          10 240 -130 240 hintmask 11010000
          324 583 rmoveto
          9 19 -2 -3 8 hvcurveto
          106 vlineto
          2 -11 -34 5 -19 hhcurveto
          -118 -58 -66 -126 hvcurveto
          -427 vlineto
          -86 -37 0 -37 vhcurveto
          hintmask 11100000
          -15 callsubr
          66 128 hvcurveto
          427 vlineto
          84 36 0 38 vhcurveto
          endchar
        </CharString>
        <CharString name="iogonek">
          -294 -31 callgsubr
          108 -21 556 131 hstemhm
          77 191 -172 172 hintmask 01111000
          270 556 -22 callsubr
          123 -643 rmoveto
          hintmask 10111000
          -67 callgsubr
          39 64 32 35 15 hvcurveto
          499 vlineto
          hintmask 10110100
          -172 -499 -29 callgsubr
        </CharString>
        <CharString name="itilde">
          -16 callgsubr
          hstem
          -58 callgsubr
          69 582 -104 callgsubr
        </CharString>
        <CharString name="j">
          -327 -172 -21 749 131 hstem
          85 -80 callsubr
          85 -50 callsubr
          -507 vlineto
          -53 -45 -8 -37 vhcurveto
          -124 vlineto
          138 116 40 160 hvcurveto
          492 vlineto
          2 57 -22 callsubr
          endchar
        </CharString>
        <CharString name="jcircumflex">
          -329 -172 -21 692 57 0 callgsubr
          hstem
          85 -80 callsubr
          85 -50 callsubr
          -507 vlineto
          -53 -45 -8 -37 vhcurveto
          -124 vlineto
          138 116 40 160 hvcurveto
          492 vlineto
          -62 179 -103 callsubr
          endchar
        </CharString>
        <CharString name="k">
          -9 21 -21 686 -21 callgsubr
          vstem
          -70 callsubr
          308 -172 -686 172 vlineto
          endchar
        </CharString>
        <CharString name="kcommaaccent">
          -9 -48 callsubr
          686 -13 callgsubr
          -13 -45 callsubr
          hintmask 11110100
          -70 callsubr
          308 -172 -686 172 vlineto
          25 -50 rmoveto
          hintmask 11101000
          -95 callsubr
        </CharString>
        <CharString name="kgreenlandic">
          -9 -3 callgsubr
          87 -80 callsubr
          -70 callsubr
          121 -172 -499 172 vlineto
          endchar
        </CharString>
        <CharString name="l">
          -281 21 -21 689 -20 hstem
          101 -80 callsubr
          -18 callgsubr
          endchar
        </CharString>
        <CharString name="lacute">
          -285 21 -21 729 -36 callsubr
          101 -80 callsubr
          101 hmoveto
          689 172 -689 vlineto
          -128 729 -102 callgsubr
        </CharString>
        <CharString name="lcaron">
          -236 21 -21 545 144 hstemhm
          101 172 53 -45 callsubr
          hintmask 11101000
          -18 callgsubr
          263 689 rmoveto
          hintmask 11110000
          -95 callsubr
        </CharString>
        <CharString name="lcommaaccent">
          -285 -48 callsubr
          689 -20 hstemhm
          101 172 -129 95 hintmask 11110000
          -18 callgsubr
          hintmask 11101000
          43 -50 rmoveto
          -95 callsubr
        </CharString>
        <CharString name="ldot">
          -235 21 -21 281 109 299 -20 hstem
          101 172 70 120 vstem
          343 281 -101 callsubr
          -70 -390 rmoveto
          689 -172 -689 vlineto
          endchar
        </CharString>
        <CharString name="less">
          15 56 -21 465 -20 hstem
          541 500 rmoveto
          -421 -187 rlineto
          -91 vlineto
          421 -187 rlineto
          136 vlineto
          -246 97 246 96 rlineto
          endchar
        </CharString>
        <CharString name="lessequal">
          -73 96 105 409 -20 hstem
          107 96 rmoveto
          377 105 -377 hlineto
          377 409 rmoveto
          -377 -146 rlineto
          -83 vlineto
          377 -147 rlineto
          113 vlineto
          -206 76 206 75 rlineto
          endchar
        </CharString>
        <CharString name="logicalnot">
          -18 227 107 hstemhm
          435 103 vstemhm
          97 334 rmoveto
          -107 338 vlineto
          hintmask 11000000
          -83 103 190 vlineto
          endchar
        </CharString>
        <CharString name="lozenge">
          -17 -15 -21 740 -20 hstem
          319 704 rmoveto
          -255 -370 255 -370 255 370 rlineto
          -391 hmoveto
          136 204 137 -204 -137 -203 rlineto
          endchar
        </CharString>
        <CharString name="lslash">
          -222 21 -21 689 -20 hstem
          116 -80 callsubr
          418 504 rmoveto
          -130 -72 rlineto
          257 -172 -351 vlineto
          -98 -54 rlineto
          -122 vlineto
          98 54 rlineto
          -216 172 310 vlineto
          130 72 rlineto
          endchar
        </CharString>
        <CharString name="m">
          294 -48 callgsubr
          hstem
          99 172 125 172 125 172 cntrmask 00111000
          641 506 rmoveto
          -58 -77 -16 -13 -38 hvcurveto
          19 -33 -41 10 -48 hhcurveto
          -132 -111 -51 -1 -4 hvcurveto
          -454 172 367 vlineto
          3 11 34 6 15 hhcurveto
          56 9 -43 -30 hvcurveto
          -303 -45 callgsubr
          24 -8 35 -5 15 vhcurveto
          5 15 38 5 16 hhcurveto
          58 11 -45 -32 hvcurveto
          -301 -45 callgsubr
          141 -87 71 -137 vhcurveto
          endchar
        </CharString>
        <CharString name="macron">
          -250 556 88 hstem
          86 234 vstem
          320 644 -73 callsubr
        </CharString>
        <CharString name="mu">
          -6 -189 -21 203 130 376 -20 hstem
          99 -28 callgsubr
          405 -50 callsubr
          -370 vlineto
          -4 -15 -15 -2 -20 hhcurveto
          -79 -5 32 23 hvcurveto
          321 -172 -709 172 208 vlineto
          -3 18 20 -2 20 hhcurveto
          136 108 58 2 4 hvcurveto
          446 vlineto
          endchar
        </CharString>
        <CharString name="multiply">
          -119 96 -21 362 -20 hstem
          463 437 rmoveto
          -109 hlineto
          -28 -37 -29 -36 -29 -36 -85 109 rcurveline
          -110 hlineto
          139 -181 -140 -181 rlineto
          111 hlineto
          27 34 31 40 27 35 86 -109 rcurveline
          109 hlineto
          -42 56 -54 68 -43 57 rrcurveto
          endchar
        </CharString>
        <CharString name="n">
          -6 -48 callgsubr
          hstem
          87 -28 callgsubr
          -90 callgsubr
          endchar
        </CharString>
        <CharString name="nacute">
          -14 -48 callgsubr
          50 -36 callsubr
          87 -28 callgsubr
          -90 callgsubr
          -66 50 -102 callgsubr
        </CharString>
        <CharString name="napostrophe">
          -6 -48 callgsubr
          14 144 hstemhm
          35 133 -86 86 -86 172 134 172 hintmask 11101010
          330 506 rmoveto
          -136 -108 -58 -2 -4 hvcurveto
          -446 vlineto
          hintmask 11100110
          172 370 hlineto
          4 15 15 2 20 hhcurveto
          79 5 -40 callgsubr
          133 -89 79 -141 vhcurveto
          -257 158 rmoveto
          hintmask 11110010
          -95 callsubr
        </CharString>
        <CharString name="ncaron">
          -14 -48 callgsubr
          172 -20 hstem
          87 -28 callgsubr
          -90 callgsubr
          137 172 rmoveto
          -102 hlineto
          -42 -44 -42 44 rlineto
          -102 hlineto
          120 -30 callsubr
          48 hlineto
          endchar
        </CharString>
        <CharString name="ncommaaccent">
          -14 -48 callsubr
          376 130 -54 callsubr
          -14 -45 callsubr
          15 172 hintmask 11110110
          -90 callgsubr
          -52 -556 rmoveto
          hintmask 11101010
          -95 callsubr
        </CharString>
        <CharString name="nine">
          -38 -8 147 89 108 192 148 hstem
          54 173 149 -16 callsubr
          286 228 rmoveto
          9 61 4 9 23 hvcurveto
          -76 -10 -84 -26 -63 hhcurveto
          -25 -36 3 19 -61 hvcurveto
          -145 vlineto
          -15 31 56 -9 49 hhcurveto
          95 216 35 332 210 -84 107 -163 -180 -66 -131 -112 -180 123 -25 109 hvcurveto
          14 300 rmoveto
          39 40 -55 -126 -3 hvcurveto
          -8 -19 -26 -3 -29 hhcurveto
          -56 -19 53 43 18 7 78 66 hvcurveto
          endchar
        </CharString>
        <CharString name="nine.denominator">
          -304 -5 -2 callgsubr
          46 -24 callsubr
          170 122 -93 callsubr
        </CharString>
        <CharString name="nine.inferior">
          -304 -155 -2 callgsubr
          45 -24 callsubr
          169 -28 -93 callsubr
        </CharString>
        <CharString name="nine.numerator">
          -304 310 -2 callgsubr
          47 -24 callsubr
          171 437 -93 callsubr
        </CharString>
        <CharString name="nine.superior">
          -304 458 -2 callgsubr
          45 -24 callsubr
          169 585 -93 callsubr
        </CharString>
        <CharString name="notequal">
          -42 -4 -21 136 117 85 117 136 -20 hstem
          504 521 rmoveto
          -76 45 -80 -136 rlineto
          -239 -117 170 hlineto
          -50 -85 rlineto
          -120 -117 51 hlineto
          -54 -91 76 -45 80 136 rlineto
          240 117 -171 hlineto
          50 85 rlineto
          121 117 -52 hlineto
          endchar
        </CharString>
        <CharString name="ntilde">
          -14 -48 callgsubr
          hstem
          87 -28 callgsubr
          -90 callgsubr
          136 76 -104 callgsubr
        </CharString>
        <CharString name="numbersign">
          -24 19 193 -91 91 118 90 -90 192 hstemhm
          hintmask 10100000
          554 330 rmoveto
          90 -61 vlineto
          hintmask 10010000
          19 102 rlineto
          -96 hlineto
          hintmask 10100000
          -4 -31 -8 -39 -6 -32 rrcurveto
          -106 hlineto
          hintmask 10010000
          18 102 rlineto
          -96 hlineto
          hintmask 10100000
          -18 -102 rlineto
          -95 -90 80 hlineto
          -7 -42 -7 -36 -7 -40 rrcurveto
          -86 hlineto
          hintmask 01100000
          -91 72 vlineto
          hintmask 10100000
          -19 -102 rlineto
          96 hlineto
          hintmask 01100000
          5 31 6 39 6 32 rrcurveto
          107 hlineto
          hintmask 10100000
          -18 -102 rlineto
          96 hlineto
          hintmask 01100000
          5 30 8 40 5 32 rrcurveto
          85 91 -70 hlineto
          6 41 8 36 7 41 rrcurveto
          -115 -118 rmoveto
          -108 hlineto
          7 41 8 36 6 41 rrcurveto
          106 hlineto
          endchar
        </CharString>
        <CharString name="o">
          -76 callgsubr
          hstem
          -14 callgsubr
          vstem
          -105 callgsubr
          endchar
        </CharString>
        <CharString name="oacute">
          -40 callsubr
          -36 callsubr
          -14 callgsubr
          vstem
          -105 callgsubr
          -56 439 -102 callgsubr
        </CharString>
        <CharString name="obreve">
          -76 callgsubr
          40 -9 callsubr
          -14 callgsubr
          hintmask 11011100
          -105 callgsubr
          41 535 rmoveto
          hintmask 11101100
          -81 callsubr
          hintmask 11011100
          -98 callsubr
          endchar
        </CharString>
        <CharString name="ocircumflex">
          -76 callgsubr
          0 51 -25 callgsubr
          -14 callgsubr
          hintmask 11011100
          -89 callsubr
          561 rmoveto
          -48 hlineto
          hintmask 10111100
          -87 callgsubr
        </CharString>
        <CharString name="ocircumflexacute">
          -76 callgsubr
          105 -36 callsubr
          -14 callgsubr
          vstem
          -89 callsubr
          548 -103 callsubr
          -59 67 -102 callgsubr
        </CharString>
        <CharString name="ocircumflexdotbelow">
          -60 callsubr
          43 -78 callsubr
          0 38 -25 callgsubr
          45 172 8 120 8 172 cntrmask 00000111
          hintmask 11101111
          -89 callsubr
          548 rmoveto
          -48 hlineto
          hintmask 11011111
          -120 -30 callsubr
          102 hlineto
          42 44 42 -44 rlineto
          102 hlineto
          -204 -702 -101 callsubr
          endchar
        </CharString>
        <CharString name="ocircumflexgrave">
          -76 callgsubr
          104 -36 callsubr
          -14 callgsubr
          vstem
          -89 callsubr
          548 -103 callsubr
          -291 183 -94 callgsubr
        </CharString>
        <CharString name="ocircumflexhookabove">
          -76 callgsubr
          38 -26 callgsubr
          -91 -20 hstemhm
          -14 callgsubr
          hintmask 11100110
          -89 callsubr
          548 -55 callsubr
          hintmask 11001110
          -13 -15 -3 -11 vhcurveto
          -59 58 23 vlineto
          0 49 7 48 vvcurveto
          hintmask 11010110
          -83 callsubr
        </CharString>
        <CharString name="ocircumflextilde">
          -76 callgsubr
          0 31 hstemhm
          -14 callgsubr
          hintmask 11011000
          -89 callsubr
          541 rmoveto
          -48 hlineto
          hintmask 10111000
          -90 callsubr
        </CharString>
        <CharString name="odieresis">
          -40 callsubr
          109 hstemhm
          45 172 -77 -56 callgsubr
          -77 172 hintmask 11110010
          -105 callgsubr
          hintmask 11101100
          -145 439 -101 callsubr
          170 -109 -101 callsubr
          endchar
        </CharString>
        <CharString name="odotbelow">
          -60 callsubr
          43 -78 callsubr
          hstem
          45 172 8 120 8 172 cntrmask 00011100
          -105 callgsubr
          -60 -276 -101 callsubr
          endchar
        </CharString>
        <CharString name="oe">
          252 -6 133 -113 -21 217 103 69 125 -109 109 -1 -20 hstemhm
          61 -50 callgsubr
          167 116 171 hintmask 1011001110000000
          823 264 -7 callsubr
          -62 -47 -16 -27 -36 vhcurveto
          hintmask 1010011110000000
          28 -38 -51 14 -61 hhcurveto
          -153 -87 -90 -166 -166 87 -90 153 61 51 14 28 39 hvcurveto
          hintmask 0111001110000000
          -34 46 57 -9 49 hhcurveto
          77 66 18 34 53 hvcurveto
          -30 callgsubr
          hintmask 1011001110000000
          -21 -35 -50 -18 -72 hhcurveto
          -52 -55 35 48 hvcurveto
          284 hlineto
          2 16 1 18 20 vvcurveto
          -522 -146 rmoveto
          -43 -25 42 90 90 25 42 43 43 25 -42 -90 -90 -25 -42 -43 hvcurveto
          239 195 rmoveto
          hintmask 1010101110000000
          41 2 20 44 34 hhcurveto
          35 19 -53 -32 2 hvcurveto
          endchar
        </CharString>
        <CharString name="ogonek">
          -285 -31 callgsubr
          -88 175 hstemhm
          hintmask 01000000
          232 -87 rmoveto
          hintmask 10000000
          -67 callgsubr
          hvcurveto
          hintmask 00100000
          39 64 32 35 15 vhcurveto
          -103 hlineto
          -4 -2 -84 -46 -60 -39 callsubr
          vhcurveto
          hintmask 01000000
          -39 callgsubr
          hvcurveto
          endchar
        </CharString>
        <CharString name="ograve">
          -40 callsubr
          -36 callsubr
          -14 callgsubr
          vstem
          -105 callgsubr
          -6 556 -94 callgsubr
        </CharString>
        <CharString name="ohookabove">
          -76 callgsubr
          201 -20 hstem
          -14 callgsubr
          vstem
          -105 callgsubr
          -1 514 rmoveto
          -105 callsubr
          endchar
        </CharString>
        <CharString name="ohorn">
          36 -76 callgsubr
          27 -20 hstem
          48 -4 callsubr
          vstem
          -100 callsubr
          endchar
        </CharString>
        <CharString name="ohornacute">
          30 -40 callsubr
          -36 callsubr
          48 -4 callsubr
          vstem
          -100 callsubr
          -56 439 -102 callgsubr
        </CharString>
        <CharString name="ohorndotbelow">
          30 -60 callsubr
          43 -78 callsubr
          27 -20 hstem
          48 172 8 120 8 172 cntrmask 00001110
          -100 callsubr
          -60 -276 -101 callsubr
          endchar
        </CharString>
        <CharString name="ohorngrave">
          30 -40 callsubr
          -36 callsubr
          48 -4 callsubr
          vstem
          -100 callsubr
          -6 556 -94 callgsubr
        </CharString>
        <CharString name="ohornhookabove">
          30 -76 callgsubr
          201 -20 hstem
          48 -4 callsubr
          vstem
          -100 callsubr
          -1 514 rmoveto
          -105 callsubr
          endchar
        </CharString>
        <CharString name="ohorntilde">
          30 -76 callgsubr
          hstem
          48 -4 callsubr
          vstem
          -100 callsubr
          154 465 -104 callgsubr
        </CharString>
        <CharString name="ohungarumlaut">
          -40 callsubr
          -36 callsubr
          -14 callgsubr
          vstem
          -105 callgsubr
          -128 439 rmoveto
          86 hlineto
          93 117 rlineto
          -117 hlineto
          89 -117 -102 callgsubr
        </CharString>
        <CharString name="omacron">
          -40 callsubr
          88 hstemhm
          45 172 -49 234 -49 172 hintmask 11110100
          -105 callgsubr
          hintmask 11101000
          117 527 -73 callsubr
        </CharString>
        <CharString name="one">
          -145 -27 callsubr
          211 -80 callsubr
          103 579 rmoveto
          -169 vlineto
          108 66 rlineto
          -476 172 667 -141 vlineto
          endchar
        </CharString>
        <CharString name="one.denominator">
          -403 21 0 callsubr
          312 rmoveto
          -91 vlineto
          hintmask 11010000
          -67 callsubr
          endchar
        </CharString>
        <CharString name="one.inferior">
          -403 -129 0 callsubr
          162 rmoveto
          -91 vlineto
          hintmask 11010000
          -67 callsubr
          endchar
        </CharString>
        <CharString name="one.numerator">
          -403 336 -21 359 -42 callsubr
          hintmask 11100000
          45 627 rmoveto
          -91 vlineto
          hintmask 11010000
          -67 callsubr
          endchar
        </CharString>
        <CharString name="one.superior">
          -403 484 -21 359 -42 callsubr
          hintmask 11100000
          45 775 rmoveto
          -91 vlineto
          hintmask 11010000
          -67 callsubr
          endchar
        </CharString>
        <CharString name="oneeighth">
          105 -32 callsubr
          311 -20 31 -42 callsubr
          238 104 -90 90 62 89 -89 104 hintmask 0111011010100000
          520 685 -80 callgsubr
          -569 -58 rmoveto
          -91 vlineto
          hintmask 1011100110100000
          -67 callsubr
          hintmask 1011011001100000
          512 -482 -83 callgsubr
          hintmask 1011011010010000
          -100 callgsubr
          endchar
        </CharString>
        <CharString name="onehalf">
          104 -1 -21 22 83 195 86 310 -20 31 -42 callsubr
          268 244 -94 94 hintmask 1110110010000000
          520 685 -80 callgsubr
          -569 -58 rmoveto
          -91 vlineto
          hintmask 1111001100000000
          -67 callsubr
          hintmask 1110110100000000
          586 -425 rmoveto
          56 -34 59 -96 -42 -39 -17 -19 -31 vhcurveto
          -94 vlineto
          28 35 39 16 29 hhcurveto
          hintmask 1110110010000000
          32 15 -15 -21 -53 -101 -78 -51 -38 hvcurveto
          -73 246 83 -105 vlineto
          44 39 59 66 61 vvcurveto
          endchar
        </CharString>
        <CharString name="onequarter">
          68 -1 -21 43 -21 91 79 504 -20 31 -42 callsubr
          360 92 hintmask 11101101
          520 685 -80 callgsubr
          -569 -58 rmoveto
          -91 vlineto
          hintmask 11110011
          -67 callsubr
          hintmask 11101101
          528 -315 -85 callsubr
        </CharString>
        <CharString name="onethird">
          102 -5 83 -79 -21 177 66 -66 208 311 -20 31 -42 callsubr
          262 -61 callgsubr
          hintmask 0110011010000000
          520 685 -80 callgsubr
          -569 -58 rmoveto
          -91 vlineto
          hintmask 1010100110000000
          -67 callsubr
          hintmask 1001011000100000
          517 -480 rmoveto
          27 5 29 30 35 vvcurveto
          78 -74 21 -56 -35 -35 -11 -15 -28 vhcurveto
          -78 vlineto
          21 44 22 -2 22 hhcurveto
          22 25 -9 -18 hvcurveto
          hintmask 1010011001000000
          -15 -10 -15 -27 vhcurveto
          -60 -66 59 hlineto
          hintmask 1010011000010000
          44 10 -22 -18 -21 -21 -16 -32 hvcurveto
          hintmask 1010011010000000
          -30 -39 14 22 -36 hvcurveto
          -89 vlineto
          -16 33 37 -14 39 hhcurveto
          hintmask 1010011000010000
          61 80 19 86 46 -29 36 -42 12 hvcurveto
          endchar
        </CharString>
        <CharString name="ordfeminine">
          -246 388 73 58 39 42 75 hstemhm
          75 96 -69 221 -98 98 hintmask 11101000
          194 675 rmoveto
          -31 -31 -8 -12 -30 hvcurveto
          -72 vlineto
          11 30 27 6 28 hhcurveto
          hintmask 11110100
          17 21 -8 -34 hvcurveto
          1 -16 4 -1 -13 hhcurveto
          -114 -11 -62 -22 -57 38 -29 82 100 28 34 66 hvcurveto
          66 vlineto
          78 -48 43 -81 vhcurveto
          33 -181 rmoveto
          -12 -8 -21 -20 -21 -7 13 17 15 10 13 27 vhcurveto
          6 6 -1 7 hhcurveto
          endchar
        </CharString>
        <CharString name="ordmasculine">
          -229 389 70 147 70 hstem
          74 96 77 96 vstem
          209 676 rmoveto
          -86 -49 -50 -94 -93 49 -50 86 85 49 50 93 94 -49 50 -85 hvcurveto
          -217 vmoveto
          -25 -14 23 50 51 14 23 25 24 14 -23 -51 -50 -14 -23 -24 hvcurveto
          endchar
        </CharString>
        <CharString name="oslash">
          6 callsubr
          hstemhm
          65 173 135 172 hintmask 01111000
          -53 callsubr
          hintmask 10111000
          -65 callgsubr
          endchar
        </CharString>
        <CharString name="oslashacute">
          6 callsubr
          50 117 hstemhm
          65 173 135 172 hintmask 01111100
          -53 callsubr
          hintmask 10111100
          -65 callgsubr
          -56 438 -102 callgsubr
        </CharString>
        <CharString name="otilde">
          -76 callgsubr
          hstem
          -14 callgsubr
          vstem
          -105 callgsubr
          154 465 -104 callgsubr
        </CharString>
        <CharString name="p">
          -51 3 callsubr
          83 6 callgsubr
          319 -7 rmoveto
          144 83 89 163 236 -157 25 -89 -186 -31 -92 -86 hvcurveto
          -513 171 180 vlineto
          -2 14 38 0 13 hhcurveto
          -12 401 rmoveto
          50 17 -75 -80 -84 -28 -55 -59 -18 -3 1 1 -12 hvcurveto
          256 vlineto
          15 14 21 39 vhcurveto
          endchar
        </CharString>
        <CharString name="paragraph">
          -124 -27 callsubr
          350 134 vstem
          484 -71 callsubr
          -173 hlineto
          -176 -96 -86 -156 -158 96 -86 176 hvcurveto
          39 -181 134 hlineto
          endchar
        </CharString>
        <CharString name="parenleft">
          -264 -92 -21 837 -20 hstem
          93 126 vstem
          322 724 rmoveto
          -126 hlineto
          -41 -81 -62 -153 -184 vvcurveto
          -185 62 -152 41 -82 vhcurveto
          126 hlineto
          -41 82 -62 152 185 vvcurveto
          184 62 153 41 81 vhcurveto
          endchar
        </CharString>
        <CharString name="parenright">
          -264 -92 -21 837 -20 hstem
          168 126 vstem
          65 724 rmoveto
          41 -81 62 -153 -184 vvcurveto
          -185 -62 -152 -41 -82 vhcurveto
          126 hlineto
          41 82 62 152 185 vvcurveto
          184 -62 153 -41 81 vhcurveto
          endchar
        </CharString>
        <CharString name="partialdiff">
          -33 5 callsubr
          89 147 hstem
          65 173 149 -16 callsubr
          247 676 rmoveto
          -29 -32 -3 -6 -28 hvcurveto
          -147 vlineto
          7 34 23 2 18 hhcurveto
          63 84 -26 -76 10 hvcurveto
          -41 callgsubr
          332 -216 35 -95 hvcurveto
          64 -536 -34 callgsubr
        </CharString>
        <CharString name="percent">
          270 -20 callgsubr
          72 101 81 101 202 100 81 102 hintmask 1001101111000000
          213 664 -81 callgsubr
          -18 -22 9 62 63 22 8 18 20 21 -8 -63 -62 -21 -9 -20 hvcurveto
          hintmask 1010011111000000
          485 -38 -81 callgsubr
          -19 -22 9 62 63 22 8 19 19 21 -8 -63 -62 -21 -9 -19 hvcurveto
          -90 551 rmoveto
          hintmask 0110011111000000
          1 callgsubr
          endchar
        </CharString>
        <CharString name="period">
          -257 0 138 hstem
          127 144 vstem
          271 138 rmoveto
          -28 callsubr
          endchar
        </CharString>
        <CharString name="periodcentered">
          -291 205 138 hstem
          105 144 vstem
          249 343 rmoveto
          -28 callsubr
          endchar
        </CharString>
        <CharString name="perthousand">
          566 -20 callgsubr
          75 101 81 101 161 100 81 102 52 100 81 102 hintmask 0110011111110000
          591 -71 callsubr
          1 callgsubr
          hintmask 1001101111110000
          -489 -3 -81 callgsubr
          -18 -22 9 62 63 22 8 18 20 21 -8 -63 -62 -21 -9 -20 hvcurveto
          hintmask 1010101111110000
          444 -38 -81 callgsubr
          -19 -22 9 62 63 22 8 19 19 21 -8 -63 -62 -21 -9 -19 hvcurveto
          335 255 -81 callgsubr
          -19 -22 9 62 63 22 8 19 19 21 -8 -63 -62 -21 -9 -19 hvcurveto
          endchar
        </CharString>
        <CharString name="pi">
          -19 21 -21 374 125 hstem
          131 127 116 125 vstem
          597 374 rmoveto
          125 -562 -125 96 -374 127 374 116 -374 125 374 vlineto
          endchar
        </CharString>
        <CharString name="plus">
          -102 139 -21 125 112 126 -20 hstem
          219 112 vstem
          331 481 rmoveto
          -112 -126 -44 callgsubr
          -125 hlineto
          endchar
        </CharString>
        <CharString name="plusminus">
          -68 6 105 186 112 126 -20 hstem
          241 112 vstem
          353 409 rmoveto
          126 -112 -126 -44 callgsubr
          vlineto
          -363 -403 rmoveto
          363 105 -363 hlineto
          endchar
        </CharString>
        <CharString name="product">
          75 -106 -21 518 126 hstem
          158 126 159 125 vstem
          689 391 rmoveto
          126 -651 -126 120 -518 126 518 159 -518 125 518 vlineto
          endchar
        </CharString>
        <CharString name="published">
          125 -8 63 199 83 109 82 84 63 hstem
          49 63 155 100 106 100 96 63 vstem
          390 -77 callgsubr
          124 154 154 125 125 153 154 125 -125 -154 -154 -125 -124 -154 hvcurveto
          34 473 rmoveto
          -157 -389 100 115 57 hlineto
          95 54 51 86 87 -54 50 -95 hvcurveto
          -9 -191 rmoveto
          -48 109 48 hlineto
          44 14 -30 -25 -25 -14 -29 -44 hvcurveto
          endchar
        </CharString>
        <CharString name="q">
          -53 3 callsubr
          56 -47 callgsubr
          -16 callsubr
          283 -7 rmoveto
          13 38 0 2 14 hvcurveto
          -180 171 513 vlineto
          86 -31 92 -186 -89 -157 -25 -236 -163 83 -89 144 vhcurveto
          12 401 rmoveto
          39 14 -21 -15 hvcurveto
          -256 vlineto
          -1 -12 -3 -1 -18 hhcurveto
          -59 -28 55 84 80 17 75 50 hvcurveto
          endchar
        </CharString>
        <CharString name="question">
          -128 0 128 422 125 hstem
          174 137 10 138 vstem
          459 481 rmoveto
          96 -52 98 -155 -68 -68 -22 -25 -36 vhcurveto
          -128 vlineto
          34 42 60 16 48 hhcurveto
          42 49 -5 -63 hvcurveto
          -86 -147 -9 -182 vvcurveto
          -13 137 10 vlineto
          137 148 -3 145 vvcurveto
          -294 -481 rmoveto
          155 128 -155 hlineto
          endchar
        </CharString>
        <CharString name="questiondown">
          -128 -176 125 422 128 hstem
          80 138 10 137 vstem
          80 18 rmoveto
          -96 52 -98 155 68 68 22 25 36 vhcurveto
          128 vlineto
          -34 -42 -60 -16 -48 hhcurveto
          -42 -49 5 63 hvcurveto
          86 147 9 182 vvcurveto
          13 -137 -10 vlineto
          -137 -148 3 -145 vvcurveto
          294 481 rmoveto
          -155 -128 155 hlineto
          endchar
        </CharString>
        <CharString name="quotedbl">
          -214 -20 callsubr
          28 hmoveto
          18 -201 rlineto
          89 hlineto
          17 201 rlineto
          endchar
        </CharString>
        <CharString name="quotedblbase">
          -137 -112 196 hstem
          320 84 rmoveto
          -71 callgsubr
          -313 hmoveto
          -71 callgsubr
          endchar
        </CharString>
        <CharString name="quotedblleft">
          -174 480 196 hstem
          48 676 rmoveto
          -25 callsubr
          35 hmoveto
          -25 callsubr
          endchar
        </CharString>
        <CharString name="quotedblright">
          -174 480 196 hstem
          296 676 rmoveto
          -71 callgsubr
          -313 hmoveto
          -71 callgsubr
          endchar
        </CharString>
        <CharString name="quoteleft">
          -352 480 196 hstem
          47 676 rmoveto
          -25 callsubr
          endchar
        </CharString>
        <CharString name="quoteright">
          -352 480 196 hstem
          121 676 rmoveto
          -71 callgsubr
          endchar
        </CharString>
        <CharString name="quotesinglbase">
          -312 -112 196 hstem
          146 84 rmoveto
          -71 callgsubr
          endchar
        </CharString>
        <CharString name="quotesingle">
          -368 -20 callsubr
          endchar
        </CharString>
        <CharString name="r">
          -256 21 -21 363 144 hstem
          80 -80 callsubr
          -77 callsubr
          endchar
        </CharString>
        <CharString name="racute">
          -261 21 -21 363 144 49 -36 callsubr
          80 -80 callsubr
          -77 callsubr
          86 106 -102 callgsubr
        </CharString>
        <CharString name="radical">
          126 -27 callsubr
          630 -71 callsubr
          -219 -562 -109 279 rlineto
          -208 -102 136 hlineto
          121 -282 rlineto
          128 hlineto
          264 667 rlineto
          endchar
        </CharString>
        <CharString name="rcaron">
          -261 21 -21 363 144 171 -20 hstem
          80 -80 callsubr
          -77 callsubr
          299 228 rmoveto
          -102 hlineto
          -42 -44 -42 44 rlineto
          -102 hlineto
          120 -30 callsubr
          48 hlineto
          endchar
        </CharString>
        <CharString name="rcommaaccent">
          -261 -48 callsubr
          363 144 hstemhm
          80 140 -95 95 hintmask 11110000
          -77 callsubr
          hintmask 11101000
          45 -500 rmoveto
          -95 callsubr
        </CharString>
        <CharString name="registered">
          125 -8 63 84 206 102 81 84 63 hstem
          49 63 131 101 109 101 115 63 vstem
          390 -77 callgsubr
          125 153 155 125 124 153 154 125 -124 -155 -153 -125 -125 -154 hvcurveto
          85 230 rmoveto
          45 14 34 39 64 vvcurveto
          82 -65 44 -92 vhcurveto
          -154 -389 101 130 41 hlineto
          72 -130 rlineto
          112 hlineto
          -166 206 rmoveto
          -59 102 59 hlineto
          26 24 -20 -32 -31 -24 -19 -26 hvcurveto
          endchar
        </CharString>
        <CharString name="ring">
          -244 535 55 62 55 hstem
          116 62 50 62 vstem
          203 707 rmoveto
          -88 callgsubr
        </CharString>
        <CharString name="s">
          -12 callsubr
          hstem
          44 173 42 -16 callsubr
          -95 callgsubr
          endchar
        </CharString>
        <CharString name="sacute">
          -12 callsubr
          50 -36 callsubr
          44 173 42 -16 callsubr
          -95 callgsubr
          -69 50 -102 callgsubr
        </CharString>
        <CharString name="scaron">
          -12 callsubr
          172 -20 hstem
          44 173 42 -16 callsubr
          -95 callgsubr
          124 172 rmoveto
          -102 hlineto
          -42 -44 -42 44 rlineto
          -102 hlineto
          120 -30 callsubr
          48 hlineto
          endchar
        </CharString>
        <CharString name="scedilla">
          -183 -122 236 273 119 hstem
          44 173 42 -16 callsubr
          243 506 rmoveto
          -110 -89 -54 -113 hvcurveto
          -158 215 9 -49 vvcurveto
          -20 -13 -7 -32 -60 -50 29 32 -41 vhcurveto
          -133 vlineto
          36 -24 45 -17 50 -5 -93 -118 rcurveline
          117 hlineto
          63 119 rlineto
          90 15 59 59 78 164 -213 0 40 vvcurveto
          12 4 22 50 35 40 -14 -22 40 vhcurveto
          114 vlineto
          25 -41 -51 16 -51 hhcurveto
          endchar
        </CharString>
        <CharString name="scircumflex">
          -12 callsubr
          -3 callsubr
          44 173 42 171 hintmask 11011100
          -95 callgsubr
          12 172 rmoveto
          -48 hlineto
          hintmask 10111100
          -87 callgsubr
        </CharString>
        <CharString name="scommaaccent">
          -183 -194 144 43 -5 callgsubr
          hstemhm
          44 173 -58 -45 callsubr
          -33 171 hintmask 11110010
          -95 callgsubr
          hintmask 11100100
          -46 -556 rmoveto
          hintmask 11101000
          -95 callsubr
        </CharString>
        <CharString name="section">
          -44 -8 124 433 127 hstemhm
          62 226 -160 160 39 157 -94 160 hintmask 11010100
          550 316 rmoveto
          143 -262 2 49 vvcurveto
          34 58 5 25 49 42 -10 -35 61 vhcurveto
          -30 callgsubr
          31 -54 -60 20 -63 hhcurveto
          -102 -116 -29 -118 -47 48 -40 24 -2 hvcurveto
          hintmask 11101000
          -50 -1 -88 -22 -72 -149 265 6 -49 vvcurveto
          -29 -51 -8 -34 -70 -53 27 48 -54 vhcurveto
          -135 vlineto
          -36 54 67 -28 79 hhcurveto
          135 84 52 90 35 -14 48 -35 19 hvcurveto
          hintmask 11100100
          33 2 82 13 65 vvcurveto
          -198 -25 rmoveto
          -85 29 -46 16 13 vvcurveto
          12 26 4 15 2 vhcurveto
          30 -12 98 -22 -20 vvcurveto
          -8 -11 -9 -27 -5 vhcurveto
          endchar
        </CharString>
        <CharString name="semicolon">
          -207 -112 196 243 138 hstem
          151 144 vstem
          155 84 rmoveto
          -71 callgsubr
          1 381 rmoveto
          -28 callsubr
          endchar
        </CharString>
        <CharString name="servicemark">
          82 331 74 192 75 -4 -20 hstemhm
          56 86 -86 214 -61 87 45 86 153 86 hintmask 11010111
          179 672 rmoveto
          -64 -59 -31 -73 hvcurveto
          -125 153 36 -46 vvcurveto
          -19 -23 -9 -23 -37 -35 13 26 -31 vhcurveto
          -81 vlineto
          -20 29 39 -12 47 hhcurveto
          65 56 39 60 hvcurveto
          133 -154 -36 42 vvcurveto
          22 29 6 21 vhcurveto
          hintmask 11001011
          25 26 -8 -16 27 hvcurveto
          76 vlineto
          14 -27 -31 9 -33 hhcurveto
          hintmask 10110111
          403 -4 rmoveto
          -78 -114 -79 114 rlineto
          -84 -333 86 206 hlineto
          77 -111 76 5 callgsubr
        </CharString>
        <CharString name="seven">
          -54 21 -21 496 171 hstem
          66 496 rmoveto
          271 hlineto
          -242 -496 rlineto
          199 hlineto
          262 541 rlineto
          126 -490 vlineto
          endchar
        </CharString>
        <CharString name="seven.denominator">
          -331 21 -21 267 92 hstem
          35 267 -75 callsubr
        </CharString>
        <CharString name="seven.inferior">
          -331 -129 -21 267 92 hstem
          34 117 -75 callsubr
        </CharString>
        <CharString name="seven.numerator">
          -331 336 -21 267 92 hstem
          35 582 -75 callsubr
        </CharString>
        <CharString name="seven.superior">
          -331 484 -21 267 92 hstem
          34 730 -75 callsubr
        </CharString>
        <CharString name="seveneighths">
          144 -32 callsubr
          219 92 11 -20 hstemhm
          486 104 -90 90 62 89 -89 104 hintmask 0111010110000000
          565 685 -80 callgsubr
          25 -493 -83 callgsubr
          hintmask 1011101001000000
          -100 callgsubr
          -571 511 -75 callsubr
        </CharString>
        <CharString name="six">
          -50 5 callsubr
          89 147 hstem
          54 171 149 173 vstem
          315 440 rmoveto
          -9 -61 -4 -9 -23 hvcurveto
          76 10 84 26 63 hhcurveto
          25 36 -3 -19 61 hvcurveto
          145 vlineto
          15 -31 -56 9 -49 hhcurveto
          -95 -216 -35 -332 -210 84 -107 163 180 66 131 112 180 -123 25 -109 hvcurveto
          -14 -300 rmoveto
          -39 -40 55 126 3 hvcurveto
          8 19 26 3 29 hhcurveto
          56 19 -53 -43 -18 -7 -78 -66 hvcurveto
          endchar
        </CharString>
        <CharString name="six.denominator">
          -306 -5 80 103 58 48 79 hstemhm
          47 -23 callgsubr
          188 236 -92 callgsubr
        </CharString>
        <CharString name="six.inferior">
          -306 -155 80 103 58 48 79 hstemhm
          47 -23 callgsubr
          188 86 -92 callgsubr
        </CharString>
        <CharString name="six.numerator">
          -306 310 80 103 58 48 79 hstemhm
          49 -23 callgsubr
          190 551 -92 callgsubr
        </CharString>
        <CharString name="six.superior">
          -306 458 80 103 58 48 79 hstemhm
          49 -23 callgsubr
          190 699 -92 callgsubr
        </CharString>
        <CharString name="slash">
          -190 -77 -21 854 -20 hstem
          353 756 rmoveto
          -367 -854 rlineto
          124 hlineto
          368 854 rlineto
          endchar
        </CharString>
        <CharString name="space">
          -315 endchar
        </CharString>
        <CharString name="sterling">
          -90 270 131 143 131 hstem
          126 138 vstem
          361 544 rmoveto
          41 44 -7 -51 61 hvcurveto
          137 vlineto
          26 -45 -61 26 -63 hhcurveto
          -157 -55 -100 -92 hvcurveto
          -82 -77 -131 77 -99 vlineto
          -21 -5 -24 -9 -32 -22 rrcurveto
          -150 vlineto
          147 138 166 -221 145 136 rrcurveto
          145 vlineto
          -80 -53 -84 1 -79 36 rrcurveto
          103 166 131 -166 75 vlineto
          48 42 20 55 vhcurveto
          endchar
        </CharString>
        <CharString name="summation">
          -71 0 127 414 126 hstem
          522 -71 callsubr
          -445 -108 hlineto
          144 -225 -144 -222 rlineto
          -112 445 127 -281 vlineto
          131 207 -131 207 rlineto
          281 hlineto
          endchar
        </CharString>
        <CharString name="t">
          -243 -7 122 269 115 148 -20 hstem
          92 -80 callsubr
          -88 callsubr
          endchar
        </CharString>
        <CharString name="tbar">
          -243 -7 122 99 98 72 115 148 -20 hstem
          92 -80 callsubr
          368 384 rmoveto
          115 -104 148 -172 -148 -68 -115 68 -72 -54 -98 54 -46 vlineto
          -109 58 -66 118 32 34 5 19 34 vhcurveto
          123 vlineto
          -19 -32 -22 -6 -19 hhcurveto
          -17 -14 13 14 hvcurveto
          72 91 98 -91 72 vlineto
          endchar
        </CharString>
        <CharString name="tcaron">
          -218 -7 122 269 115 69 144 hstemhm
          92 172 53 -45 callsubr
          hintmask 11110100
          -88 callsubr
          91 328 rmoveto
          hintmask 11111000
          -95 callsubr
        </CharString>
        <CharString name="tcommaaccent">
          -243 -194 144 43 122 269 115 148 -20 hstemhm
          92 172 -116 -45 callsubr
          hintmask 11111000
          -88 callsubr
          hintmask 11110010
          -78 -434 rmoveto
          hintmask 11110100
          -95 callsubr
        </CharString>
        <CharString name="thorn">
          -58 -162 -21 182 107 290 107 182 -20 hstem
          84 6 callgsubr
          320 503 rmoveto
          -13 -38 -1 -2 -14 hvcurveto
          185 -171 -868 171 185 vlineto
          -2 14 38 -1 13 hhcurveto
          144 83 89 163 163 -83 89 -144 hvcurveto
          -32 -397 rmoveto
          -18 -3 1 1 -12 hvcurveto
          286 vlineto
          1 12 3 1 18 hhcurveto
          76 -5 11 -78 -62 vvcurveto
          -62 -11 -78 -76 -5 vhcurveto
          endchar
        </CharString>
        <CharString name="three">
          -53 -8 154 143 124 105 158 hstemhm
          333 173 -144 171 hintmask 11110000
          402 362 rmoveto
          50 10 54 56 65 vvcurveto
          144 -138 39 -105 -64 -66 -19 -28 -53 vhcurveto
          -145 vlineto
          38 82 42 -4 40 hhcurveto
          42 47 -16 -34 -27 -19 -28 -51 hvcurveto
          -111 -124 109 hlineto
          hintmask 11101000
          82 19 -41 -32 -39 -40 -31 -58 -57 -72 27 40 -67 hvcurveto
          -165 vlineto
          -31 61 70 -25 72 hhcurveto
          114 148 36 159 86 -53 67 -78 22 hvcurveto
          endchar
        </CharString>
        <CharString name="three.denominator">
          -318 -5 -27 callgsubr
          hstemhm
          50 -61 callgsubr
          hintmask 10100100
          229 194 -94 callsubr
        </CharString>
        <CharString name="three.inferior">
          -318 -155 -27 callgsubr
          hstemhm
          50 -61 callgsubr
          hintmask 10100100
          229 44 -94 callsubr
        </CharString>
        <CharString name="three.numerator">
          -318 310 -27 callgsubr
          hstemhm
          53 -61 callgsubr
          hintmask 10100100
          232 509 -94 callsubr
        </CharString>
        <CharString name="three.superior">
          -318 458 -27 callgsubr
          hstemhm
          49 -61 callgsubr
          hintmask 10100100
          228 657 -94 callsubr
        </CharString>
        <CharString name="threeeighths">
          214 -32 callsubr
          -53 -27 callgsubr
          7 -20 hstemhm
          67 -61 callgsubr
          230 104 -90 90 62 89 -89 104 hintmask 1011001000101010
          -49 callgsubr
          hintmask 1011010101001010
          -15 -10 -15 -27 vhcurveto
          -60 -66 59 hlineto
          hintmask 1010110100011010
          44 10 -22 -18 -21 -21 -16 -32 hvcurveto
          hintmask 1010110110001010
          -30 -39 14 22 -36 hvcurveto
          -89 vlineto
          -16 33 37 -14 39 hhcurveto
          hintmask 0111010100010110
          61 80 19 86 46 -29 36 -42 12 hvcurveto
          380 176 -80 callgsubr
          25 -493 -83 callgsubr
          hintmask 1011010110001001
          -100 callgsubr
          endchar
        </CharString>
        <CharString name="threequarters">
          205 -1 -21 43 -21 91 79 140 -27 callgsubr
          7 -20 hstemhm
          67 -61 callgsubr
          350 92 hintmask 1111010001010000
          -49 callgsubr
          hintmask 1111101010010000
          -15 -10 -15 -27 vhcurveto
          -60 -66 59 hlineto
          hintmask 1111101000110000
          44 10 -22 -18 -21 -21 -16 -32 hvcurveto
          hintmask 1111101100010000
          -30 -39 14 22 -36 hvcurveto
          -89 vlineto
          -16 33 37 -14 39 hhcurveto
          hintmask 1111101000110000
          61 80 19 86 46 -29 36 -42 12 hvcurveto
          380 176 -80 callgsubr
          39 -326 -85 callsubr
        </CharString>
        <CharString name="tilde">
          -136 409 582 -104 callgsubr
        </CharString>
        <CharString name="trademark">
          119 355 -21 255 78 hstem
          145 86 146 86 154 86 vstem
          49 -71 callsubr
          -78 96 -255 86 255 97 78 vlineto
          290 hmoveto
          -78 -114 -78 114 rlineto
          -85 -333 86 206 hlineto
          77 -111 77 5 callgsubr
        </CharString>
        <CharString name="two">
          -33 0 155 362 159 hstem
          360 174 vstem
          530 463 rmoveto
          103 -62 110 -179 -77 -73 -32 -35 -57 vhcurveto
          -174 vlineto
          51 64 72 31 55 hhcurveto
          59 28 -28 -39 -98 -188 -145 -95 -71 hvcurveto
          -136 457 155 -194 vlineto
          82 72 108 122 114 vvcurveto
          endchar
        </CharString>
        <CharString name="two.denominator">
          -313 0 83 195 86 hstemhm
          50 -6 callsubr
          292 249 -86 callsubr
        </CharString>
        <CharString name="two.inferior">
          -313 -150 83 195 86 hstemhm
          51 -6 callsubr
          293 99 -86 callsubr
        </CharString>
        <CharString name="two.numerator">
          -313 315 83 195 86 hstemhm
          51 -6 callsubr
          293 564 -86 callsubr
        </CharString>
        <CharString name="two.superior">
          -313 463 83 195 86 hstemhm
          52 -6 callsubr
          294 712 -86 callsubr
        </CharString>
        <CharString name="u">
          -28 -15 callgsubr
          377 -20 hstem
          84 -59 callgsubr
          vstem
          376 -50 callsubr
          -103 callgsubr
          274 vlineto
          endchar
        </CharString>
        <CharString name="uacute">
          -10 callsubr
          434 -36 callsubr
          84 -59 callgsubr
          vstem
          376 -50 callsubr
          -103 callgsubr
          274 vlineto
          -286 57 -102 callgsubr
        </CharString>
        <CharString name="ubreve">
          -10 callsubr
          423 -9 callsubr
          84 -59 callgsubr
          hintmask 10111000
          376 -50 callsubr
          -103 callgsubr
          274 vlineto
          -191 153 rmoveto
          hintmask 11011000
          -81 callsubr
          hintmask 10111000
          -98 callsubr
          endchar
        </CharString>
        <CharString name="ucaron">
          -10 callsubr
          556 -20 hstem
          84 -59 callgsubr
          vstem
          376 -50 callsubr
          -103 callgsubr
          274 vlineto
          -88 179 rmoveto
          -102 hlineto
          -42 -44 -42 44 rlineto
          -102 hlineto
          120 -30 callsubr
          48 hlineto
          endchar
        </CharString>
        <CharString name="ucircumflex">
          -10 callsubr
          377 57 0 callgsubr
          hstem
          84 -59 callgsubr
          vstem
          376 -50 callsubr
          -103 callgsubr
          274 vlineto
          -208 179 -103 callsubr
          endchar
        </CharString>
        <CharString name="udieresis">
          -10 callsubr
          434 109 hstemhm
          84 172 -85 -56 callgsubr
          -85 172 hintmask 11100100
          376 -50 callsubr
          -103 callgsubr
          274 vlineto
          hintmask 11011000
          -377 57 -101 callsubr
          170 -109 -101 callsubr
          endchar
        </CharString>
        <CharString name="udotbelow">
          -33 -60 callsubr
          43 129 377 -20 hstemhm
          84 172 0 120 0 172 hintmask 11101000
          376 -50 callsubr
          -304 vlineto
          -48 -17 -25 -43 -43 -17 25 48 vhcurveto
          304 vlineto
          hintmask 11110100
          -172 -274 hlineto
          -165 89 -67 -51 callsubr
          89 67 165 vhcurveto
          274 vlineto
          -292 -658 -101 callsubr
          endchar
        </CharString>
        <CharString name="ugrave">
          -10 callsubr
          434 -36 callsubr
          84 -59 callgsubr
          vstem
          376 -50 callsubr
          -103 callgsubr
          274 vlineto
          -240 174 -94 callgsubr
        </CharString>
        <CharString name="uhookabove">
          -10 callsubr
          584 -20 hstem
          84 -59 callgsubr
          vstem
          376 -50 callsubr
          -103 callgsubr
          274 vlineto
          -234 132 rmoveto
          -105 callsubr
          endchar
        </CharString>
        <CharString name="uhorn">
          109 -15 callgsubr
          410 -20 hstem
          82 -59 callgsubr
          vstem
          706 -62 callgsubr
          -28 hhcurveto
          -6 -6 0 1 -5 hvcurveto
          102 -172 -103 callgsubr
          99 vlineto
          -2 7 9 -1 9 hhcurveto
          30 33 12 27 43 hvcurveto
          42 27 60 38 0 vvcurveto
          endchar
        </CharString>
        <CharString name="uhornacute">
          104 -15 callgsubr
          434 -36 callsubr
          82 -59 callgsubr
          vstem
          706 -62 callgsubr
          -28 hhcurveto
          -6 -6 0 1 -5 hvcurveto
          102 -172 -103 callgsubr
          99 vlineto
          -2 7 9 -1 9 hhcurveto
          30 33 12 27 43 hvcurveto
          42 27 60 38 0 vvcurveto
          -490 131 -102 callgsubr
        </CharString>
        <CharString name="uhorndotbelow">
          104 -60 callsubr
          43 129 410 -20 hstem
          82 172 0 120 0 172 cntrmask 00011100
          706 -62 callgsubr
          -28 hhcurveto
          -6 -6 0 1 -5 hvcurveto
          102 -172 -103 callgsubr
          99 vlineto
          -2 7 9 -1 9 hhcurveto
          30 33 12 27 43 hvcurveto
          42 27 60 38 0 vvcurveto
          -525 -584 -101 callsubr
          endchar
        </CharString>
        <CharString name="uhorngrave">
          104 -15 callgsubr
          434 -36 callsubr
          82 -59 callgsubr
          vstem
          706 -62 callgsubr
          -28 hhcurveto
          -6 -6 0 1 -5 hvcurveto
          102 -172 -103 callgsubr
          99 vlineto
          -2 7 9 -1 9 hhcurveto
          30 33 12 27 43 hvcurveto
          42 27 60 38 0 vvcurveto
          -473 248 -94 callgsubr
        </CharString>
        <CharString name="uhornhookabove">
          104 -15 callgsubr
          584 -20 hstem
          82 -59 callgsubr
          vstem
          706 -62 callgsubr
          -28 hhcurveto
          -6 -6 0 1 -5 hvcurveto
          102 -172 -103 callgsubr
          99 vlineto
          -2 7 9 -1 9 hhcurveto
          30 33 12 27 43 hvcurveto
          42 27 60 38 0 vvcurveto
          -467 206 rmoveto
          -105 callsubr
          endchar
        </CharString>
        <CharString name="uhorntilde">
          104 -15 callgsubr
          hstem
          82 -59 callgsubr
          vstem
          706 -62 callgsubr
          -28 hhcurveto
          -6 -6 0 1 -5 hvcurveto
          102 -172 -103 callgsubr
          99 vlineto
          -2 7 9 -1 9 hhcurveto
          30 33 12 27 43 hvcurveto
          42 27 60 38 0 vvcurveto
          -310 157 -104 callgsubr
        </CharString>
        <CharString name="uhungarumlaut">
          -10 callsubr
          434 -36 callsubr
          84 -59 callgsubr
          vstem
          376 -50 callsubr
          -103 callgsubr
          274 vlineto
          -359 57 rmoveto
          86 hlineto
          93 117 rlineto
          -117 hlineto
          89 -117 -102 callgsubr
        </CharString>
        <CharString name="umacron">
          -10 callsubr
          434 88 hstemhm
          84 172 -57 234 -57 172 hintmask 11101000
          376 -50 callsubr
          -103 callgsubr
          274 vlineto
          hintmask 11010000
          -115 145 -73 callsubr
        </CharString>
        <CharString name="underscore">
          -107 -126 102 hstem
          -24 vmoveto
          -102 546 102 vlineto
          endchar
        </CharString>
        <CharString name="uni021A">
          -74 callsubr
        </CharString>
        <CharString name="uni021B">
          -243 -194 144 43 122 269 115 148 -20 hstemhm
          92 172 -116 -45 callsubr
          hintmask 11111000
          -88 callsubr
          hintmask 11110010
          -78 -434 rmoveto
          hintmask 11110100
          -95 callsubr
        </CharString>
        <CharString name="uni2116">
          479 21 -21 29 115 43 122 150 122 86 -20 hstem
          87 150 237 151 63 125 115 124 vstem
          474 -71 callsubr
          -399 vlineto
          -237 399 rlineto
          -150 -667 150 398 hlineto
          239 -398 rlineto
          149 667 hlineto
          245 -86 rmoveto
          -116 -66 -70 -127 -127 66 -70 116 116 66 70 127 127 -66 70 -116 hvcurveto
          -272 vmoveto
          -34 -23 13 62 62 23 13 34 35 23 -13 -62 -62 -23 -13 -35 hvcurveto
          -170 -280 rmoveto
          340 115 -340 hlineto
          endchar
        </CharString>
        <CharString name="uogonek">
          -33 -31 callgsubr
          586 -20 hstemhm
          84 -59 callgsubr
          hintmask 01111000
          337 -87 rmoveto
          hintmask 10111000
          -67 callgsubr
          39 64 32 35 15 hvcurveto
          100 20 60 70 135 vvcurveto
          274 -172 -304 vlineto
          -48 -17 -25 -43 -43 -17 25 48 vhcurveto
          304 -172 -274 vlineto
          -149 73 -69 119 -12 vhcurveto
          -22 -13 -57 -39 -51 -39 callsubr
          vhcurveto
          hintmask 01111000
          -39 callgsubr
          hvcurveto
          endchar
        </CharString>
        <CharString name="uring">
          -10 callsubr
          413 55 62 55 hstemhm
          84 172 -27 62 50 62 -27 172 hintmask 11110010
          376 -50 callsubr
          -103 callgsubr
          274 vlineto
          -232 208 rmoveto
          hintmask 11101100
          -88 callgsubr
        </CharString>
        <CharString name="utilde">
          -10 callsubr
          hstem
          84 -59 callgsubr
          vstem
          376 -50 callsubr
          -103 callgsubr
          274 vlineto
          -77 83 -104 callgsubr
        </CharString>
        <CharString name="v">
          -55 -3 callgsubr
          382 -50 callsubr
          -84 -307 -83 307 rlineto
          -183 hlineto
          191 -499 rlineto
          152 hlineto
          191 499 rlineto
          endchar
        </CharString>
        <CharString name="w">
          208 -3 callgsubr
          -91 callgsubr
          endchar
        </CharString>
        <CharString name="wacute">
          208 21 -21 556 -36 callsubr
          -91 callgsubr
          -436 57 -102 callgsubr
        </CharString>
        <CharString name="wcircumflex">
          208 21 -21 499 57 0 callgsubr
          hstem
          -91 callgsubr
          -366 179 -103 callsubr
          endchar
        </CharString>
        <CharString name="wdieresis">
          208 21 -21 556 109 hstem
          285 -18 callsubr
          -91 callgsubr
          -535 57 -101 callsubr
          170 -109 -101 callsubr
          endchar
        </CharString>
        <CharString name="wgrave">
          208 21 -21 556 -36 callsubr
          -91 callgsubr
          -406 174 -94 callgsubr
        </CharString>
        <CharString name="x">
          -43 -3 callgsubr
          566 -50 callsubr
          -190 hlineto
          -71 -101 -72 101 rlineto
          -202 hlineto
          172 -246 -177 -253 rlineto
          190 hlineto
          81 123 84 -123 rlineto
          203 hlineto
          -189 265 rlineto
          endchar
        </CharString>
        <CharString name="y">
          -31 callsubr
          562 -20 hstem
          360 -50 callsubr
          -75 -287 -76 287 rlineto
          -178 hlineto
          48 -129 75 -187 51 -135 rrcurveto
          -79 -22 -33 -32 -28 hhcurveto
          -20 -18 2 10 -28 hvcurveto
          -125 vlineto
          -14 29 41 -7 39 hhcurveto
          82 50 57 150 58 hvcurveto
          182 489 rlineto
          endchar
        </CharString>
        <CharString name="yacute">
          -31 callsubr
          619 -36 callsubr
          -97 callgsubr
          -300 57 -102 callgsubr
        </CharString>
        <CharString name="ycircumflex">
          -31 callsubr
          562 57 0 callgsubr
          hstem
          -97 callgsubr
          -228 179 -103 callsubr
          endchar
        </CharString>
        <CharString name="ydieresis">
          -31 callsubr
          619 109 hstem
          140 -18 callsubr
          -97 callgsubr
          -397 57 -101 callsubr
          170 -109 -101 callsubr
          endchar
        </CharString>
        <CharString name="ydotbelow">
          -31 callsubr
          -96 109 549 -20 hstemhm
          379 120 hintmask 10110000
          -97 callgsubr
          hintmask 01110000
          -158 -658 -101 callsubr
          endchar
        </CharString>
        <CharString name="yen">
          76 21 -21 105 98 76 98 290 -20 hstem
          283 -80 callsubr
          720 -71 callsubr
          -209 hlineto
          -142 -254 -142 254 rlineto
          -209 hlineto
          199 -290 rlineto
          -67 -98 133 -76 -133 -98 133 -105 172 105 133 98 -133 76 133 98 -67 hlineto
          endchar
        </CharString>
        <CharString name="ygrave">
          -31 callsubr
          619 -36 callsubr
          -97 callgsubr
          -267 174 -94 callgsubr
        </CharString>
        <CharString name="yhookabove">
          -31 callsubr
          769 -20 hstem
          -97 callgsubr
          -257 132 rmoveto
          -105 callsubr
          endchar
        </CharString>
        <CharString name="ytilde">
          -31 callsubr
          hstem
          -97 callgsubr
          -97 83 -104 callgsubr
        </CharString>
        <CharString name="z">
          -150 0 143 223 133 hstem
          444 360 rmoveto
          139 -393 -133 202 vlineto
          -207 -225 rlineto
          -141 398 143 -186 vlineto
          endchar
        </CharString>
        <CharString name="zacute">
          -11 callgsubr
          57 -36 callsubr
          -64 callsubr
          -62 405 -102 callgsubr
        </CharString>
        <CharString name="zcaron">
          -11 callgsubr
          179 -20 hstem
          -64 callsubr
          137 -43 callsubr
          -102 hlineto
          -42 -44 -42 44 rlineto
          -102 hlineto
          120 -30 callsubr
          48 hlineto
          endchar
        </CharString>
        <CharString name="zdotaccent">
          -11 callgsubr
          57 109 hstem
          191 120 vstem
          -64 callsubr
          -67 405 -101 callsubr
          endchar
        </CharString>
        <CharString name="zero">
          4 -8 149 388 147 hstem
          58 173 196 -16 callsubr
          328 -46 callgsubr
          -535 vmoveto
          -46 -51 27 166 166 51 29 46 47 52 -29 -166 -166 -52 -27 -47 hvcurveto
          endchar
        </CharString>
        <CharString name="zero.denominator">
          -276 -5 -46 callsubr
          363 -85 callgsubr
        </CharString>
        <CharString name="zero.inferior">
          -276 -155 -46 callsubr
          213 -85 callgsubr
        </CharString>
        <CharString name="zero.numerator">
          -276 310 -46 callsubr
          678 -85 callgsubr
        </CharString>
        <CharString name="zero.slash">
          18 -8 149 388 147 hstem
          65 173 196 -16 callsubr
          335 -46 callgsubr
          -147 vmoveto
          23 26 -8 -29 19 hvcurveto
          -164 -198 rlineto
          -1 12 0 14 14 vvcurveto
          166 51 29 46 vhcurveto
          -388 vmoveto
          -24 -25 7 29 -19 hvcurveto
          165 198 rlineto
          1 -12 1 -14 -15 vvcurveto
          -166 -52 -27 -47 vhcurveto
          endchar
        </CharString>
        <CharString name="zero.superior">
          -276 458 -46 callsubr
          826 -85 callgsubr
        </CharString>
      <CharString index="0">
        265 506 rmoveto
        -74 callgsubr
        hvcurveto
        -38 callsubr
        21 52 50 10 50 hhcurveto
        30 37 -15 -61 hvcurveto
        2 -28 7 -1 -24 hhcurveto
        -204 -19 -111 -39 -103 68 -51 146 179 50 60 118 hvcurveto
        118 vlineto
        141 -85 76 -145 vhcurveto
        58 -323 rmoveto
        -22 -14 -37 -36 -37 -12 22 31 27 17 23 49 11 10 -60 callgsubr
        return
      </CharString>
      <CharString index="1">
        374 -13 callsubr
        -143 -170 -59 -281 -281 170 -59 -51 callsubr
        170 59 281 281 -170 59 -143 hvcurveto
        -533 vmoveto
        -96 callgsubr
        return
      </CharString>
      <CharString index="2">
        285 505 rmoveto
        -153 -87 -90 -166 -166 87 -90 153 153 87 90 166 166 -87 90 -153 hvcurveto
        -388 vmoveto
        -43 -25 42 90 90 25 42 43 43 25 -42 -90 -90 -25 -42 -43 hvcurveto
        return
      </CharString>
      <CharString index="3">
        rmoveto
        85 vlineto
        -101 -119 -101 219 -102 -119 rrcurveto
        -85 vlineto
        102 119 101 -219 101 119 rrcurveto
        endchar
      </CharString>
      <CharString index="4">
        -304 vlineto
        -48 -17 -25 -43 -43 -17 25 48 vhcurveto
        304 -172 -274 vlineto
        -165 89 -67 -51 callsubr
        89 67 165 vhcurveto
        return
      </CharString>
      <CharString index="5">
        rmoveto
        86 hlineto
        93 117 rlineto
        -117 hlineto
        endchar
      </CharString>
      <CharString index="6">
        552 -43 callsubr
        140 -465 -667 465 141 -293 122 254 141 -254 123 vlineto
        return
      </CharString>
      <CharString index="7">
        -38 -10 -34 -34 -44 vvcurveto
        -73 51 -36 84 84 51 36 73 44 -34 34 -38 10 vhcurveto
        -63 95 rmoveto
        21 10 -18 -13 -20 -17 -9 -14 -13 -18 9 20 13 10 18 21 hvcurveto
        -216 vmoveto
        -29 -13 20 24 15 13 21 29 29 12 -21 -15 -24 -12 -20 -29 hvcurveto
        return
      </CharString>
      <CharString index="8">
        862 586 rmoveto
        -73 107 -99 -63 31 -44 rlineto
        -19 -33 -14 -10 -28 hhcurveto
        -7 -6 1 1 -6 hvcurveto
        90 -62 -102 24 -91 hhcurveto
        -143 -170 -59 -281 -281 170 -59 -51 callsubr
        170 59 281 59 -8 49 -13 41 hvcurveto
        27 3 31 12 38 24 rrcurveto
        42 27 60 38 0 vvcurveto
        -490 -446 -4 callgsubr
        return
      </CharString>
      <CharString index="9">
        367 394 rmoveto
        -128 119 -110 vlineto
        -14 -32 -34 -1 -26 hhcurveto
        -85 -77 35 158 157 81 36 87 65 63 -10 -31 76 hvcurveto
        138 vlineto
        31 -69 -82 19 -79 -52 callsubr
        -281 170 -59 143 98 83 24 40 68 hvcurveto
        337 vlineto
        return
      </CharString>
      <CharString index="10">
        356 -50 callsubr
        -71 -287 -72 287 rlineto
        -182 hlineto
        48 -129 75 -187 51 -135 rrcurveto
        -79 -22 -33 -32 -28 hhcurveto
        -20 -18 2 10 -28 hvcurveto
        -125 vlineto
        -14 29 41 -7 39 hhcurveto
        82 50 57 150 58 hvcurveto
        182 489 rlineto
        return
      </CharString>
      <CharString index="11">
        -73 -68 34 159 159 68 34 73 73 68 -34 -159 -159 -68 -34 -73 hvcurveto
        return
      </CharString>
      <CharString index="12">
        243 506 rmoveto
        -110 -89 -54 -113 hvcurveto
        -158 215 9 -49 vvcurveto
        -20 -13 -7 -32 -60 -50 29 32 -41 vhcurveto
        -133 vlineto
        -29 45 59 -20 65 hhcurveto
        118 80 65 91 hvcurveto
        164 -213 0 40 vvcurveto
        12 4 22 50 35 40 -14 -22 40 vhcurveto
        114 vlineto
        25 -41 -51 16 -51 hhcurveto
        return
      </CharString>
      <CharString index="13">
        rmoveto
        -117 hlineto
        93 -117 rlineto
        86 hlineto
        endchar
      </CharString>
      <CharString index="14">
        384 -43 callsubr
        69 62 -13 -35 73 hvcurveto
        149 vlineto
        28 -70 -73 19 -71 -52 callsubr
        -282 170 -59 143 71 73 19 28 70 hvcurveto
        149 vlineto
        -35 -73 -62 -13 -69 hhcurveto
        -79 -72 35 158 158 72 35 79 hvcurveto
        return
      </CharString>
      <CharString index="15">
        rmoveto
        -5 -33 -2 -5 -12 hvcurveto
        41 5 45 14 34 hhcurveto
        13 20 -2 -10 32 hvcurveto
        78 vlineto
        8 -16 -30 5 -27 hhcurveto
        -51 -116 -19 -179 -112 45 -58 88 hvcurveto
        hintmask 11110100
        97 35 70 61 96 -66 14 -58 hvcurveto
        -8 -161 rmoveto
        -21 -21 29 68 1 hvcurveto
        4 10 14 2 16 hhcurveto
        30 10 -29 -23 -10 -3 -41 -36 hvcurveto
        endchar
      </CharString>
      <CharString index="16">
        638 -50 callsubr
        -65 -301 -19 74 -42 159 -18 68 rlinecurve
        -128 hlineto
        -18 -68 -42 -159 -19 -74 -65 301 rcurveline
        -182 hlineto
        177 -499 rlineto
        151 hlineto
        62 224 62 -224 rlineto
        151 hlineto
        177 499 rlineto
        return
      </CharString>
      <CharString index="17">
        335 506 rmoveto
        -136 -108 -58 -2 -4 hvcurveto
        -446 172 370 vlineto
        4 15 15 2 20 hhcurveto
        79 5 -40 callgsubr
        133 -89 79 -141 vhcurveto
        return
      </CharString>
      <CharString index="18">
        485 249 rmoveto
        77 25 57 66 110 vvcurveto
        141 -110 76 -159 vhcurveto
        -263 -9 callgsubr
        223 71 hlineto
        124 -223 rlineto
        192 hlineto
        -387 352 rmoveto
        175 102 vlineto
        45 41 -34 -54 -53 -41 -34 -45 hvcurveto
        return
      </CharString>
      <CharString index="19">
        -55 -32 -32 -54 -55 32 -31 55 56 31 31 55 54 -31 32 -56 hvcurveto
        -117 vmoveto
        -18 -7 7 24 23 7 8 18 18 7 -8 -23 -24 -7 -7 -18 hvcurveto
        endchar
      </CharString>
      <CharString index="20">
        -120 -30 callsubr
        102 hlineto
        42 44 42 -44 rlineto
        102 hlineto
        endchar
      </CharString>
      <CharString index="21">
        rmoveto
        68 207 67 -207 rlineto
        return
      </CharString>
      <CharString index="22">
        rmoveto
        -96 -49 -63 -121 -122 49 -62 96 97 48 62 122 121 -48 63 -97 hvcurveto
        -288 vmoveto
        -24 -28 15 89 89 28 16 24 26 28 -16 -89 -89 -28 -15 -26 hvcurveto
        endchar
      </CharString>
      <CharString index="23">
        530 -71 callsubr
        -400 vlineto
        -271 400 rlineto
        -172 -9 callgsubr
        397 hlineto
        273 -397 rlineto
        170 667 hlineto
        return
      </CharString>
      <CharString index="24">
        rmoveto
        28 8 29 26 38 vvcurveto
        67 -44 32 -76 -76 -45 -32 -67 -38 30 -26 28 -8 vhcurveto
        return
      </CharString>
      <CharString index="25">
        -102 -7 131 103 70 75 134 return
      </CharString>
      <CharString index="26">
        rmoveto
        -93 -48 -62 -122 -122 48 -62 93 94 48 62 122 122 -48 62 -94 hvcurveto
        -255 vmoveto
        return
      </CharString>
      <CharString index="27">
        rmoveto
        -437 -707 rlineto
        94 hlineto
        437 707 rlineto
        return
      </CharString>
      <CharString index="28">
        134 83 103 85 109 return
      </CharString>
      <CharString index="29">
        147 386 147 return
      </CharString>
      <CharString index="30">
        675 rmoveto
        -188 -153 -153 -189 -188 153 -153 188 189 153 153 188 189 -153 153 -189 hvcurveto
        -620 vmoveto
        -153 -125 return
      </CharString>
      <CharString index="31">
        -7 -78 callsubr
        return
      </CharString>
      <CharString index="32">
        579 528 rmoveto
        139 -511 -153 298 vlineto
        -301 -372 rlineto
        -142 514 151 -292 vlineto
        return
      </CharString>
      <CharString index="33">
        -56 -56 -14 -21 -52 return
      </CharString>
      <CharString index="34">
        -32 54 64 -10 59 hhcurveto
        143 170 59 281 94 -19 69 -31 51 hvcurveto
        -404 -214 rmoveto
        159 68 34 73 25 25 -4 -12 21 vhcurveto
        -208 -242 rlineto
        -3 19 -1 22 24 vvcurveto
        282 hmoveto
        -159 -68 -34 -73 -26 -25 4 12 -21 vhcurveto
        208 243 rlineto
        3 -19 2 -22 -25 vvcurveto
        return
      </CharString>
      <CharString index="35">
        -55 callsubr
        -13 -15 -3 -11 vhcurveto
        -59 58 23 vlineto
        0 49 7 48 vvcurveto
        return
      </CharString>
      <CharString index="36">
        -74 -196 -26 callsubr
        96 196 rlineto
        return
      </CharString>
      <CharString index="37">
        290 505 rmoveto
        -144 -83 -89 -163 -236 157 -25 89 186 31 92 86 hvcurveto
        520 -171 -187 vlineto
        2 -14 -38 0 -13 hhcurveto
        12 -401 rmoveto
        -50 -17 75 80 84 28 55 59 18 3 -1 -1 12 hvcurveto
        -256 vlineto
        -15 -14 -21 -39 vhcurveto
        return
      </CharString>
      <CharString index="38">
        -21 160 127 return
      </CharString>
      <CharString index="39">
        141 -85 76 -145 vhcurveto
        58 -323 rmoveto
        -22 -14 -37 -36 -37 -12 22 31 27 17 23 49 11 10 -60 callgsubr
        -24 return
      </CharString>
      <CharString index="40">
        -10 -4 -7 -12 -19 hhcurveto
        -19 1 21 2 return
      </CharString>
      <CharString index="41">
        88 hmoveto
        667 172 -667 vlineto
        return
      </CharString>
      <CharString index="42">
        -16 34 39 -8 46 hhcurveto
        153 87 90 166 59 -11 50 -21 39 hvcurveto
        -208 -16 rmoveto
        10 9 -3 -4 8 hvcurveto
        -94 -111 rlineto
        80 2 25 38 40 hhcurveto
        -264 vmoveto
        -10 -9 2 5 -8 hvcurveto
        95 110 rlineto
        -80 -3 -24 -37 -41 hhcurveto
        return
      </CharString>
      <CharString index="43">
        87 172 return
      </CharString>
      <CharString index="44">
        -51 callgsubr
        172 return
      </CharString>
      <CharString index="45">
        532 -57 callgsubr
        return
      </CharString>
      <CharString index="46">
        235 -190 190 -93 93 -77 92 return
      </CharString>
      <CharString index="47">
        -1 -1 12 vhcurveto
        return
      </CharString>
      <CharString index="48">
        -47 callgsubr
        172 return
      </CharString>
      <CharString index="49">
        96 hmoveto
        499 172 -499 vlineto
        return
      </CharString>
      <CharString index="50">
        rmoveto
        -99 -63 31 -44 rlineto
        -19 -33 -14 -10 return
      </CharString>
      <CharString index="51">
        120 50 120 return
      </CharString>
      <CharString index="52">
        rmoveto
        -165 hlineto
        -169 -190 169 -191 rlineto
        165 hlineto
        -182 191 rlineto
        return
      </CharString>
      <CharString index="53">
        rmoveto
        -182 -191 rlineto
        165 hlineto
        169 191 -169 190 rlineto
        -165 hlineto
        return
      </CharString>
      <CharString index="54">
        -20 hstem
        88 172 214 -80 callsubr
        474 -71 callsubr
        -263 -214 263 -172 -9 callgsubr
        263 214 -263 172 667 vlineto
        return
      </CharString>
      <CharString index="55">
        693 hmoveto
        -281 377 262 290 rlineto
        -232 hlineto
        -183 -235 rlineto
        235 -172 -9 callgsubr
        207 vlineto
        47 53 170 -260 rlineto
        return
      </CharString>
      <CharString index="56">
        172 282 return
      </CharString>
      <CharString index="57">
        172 136 return
      </CharString>
      <CharString index="58">
        246 -47 callsubr
        return
      </CharString>
      <CharString index="59">
        21 -43 callgsubr
        return
      </CharString>
      <CharString index="60">
        172 120 return
      </CharString>
      <CharString index="61">
        676 rmoveto
        -179 -91 -116 -226 -226 91 -116 179 180 90 116 226 226 -90 116 -180 hvcurveto
        return
      </CharString>
      <CharString index="62">
        172 294 vlineto
        return
      </CharString>
      <CharString index="63">
        -126 -112 126 -125 112 125 125 112 return
      </CharString>
      <CharString index="64">
        -21 376 130 return
      </CharString>
      <CharString index="65">
        -52 -55 35 48 hvcurveto
        284 hlineto
        2 16 1 18 20 vvcurveto
        -453 -81 rmoveto
        -22 -14 -37 -36 -37 -12 22 31 vhcurveto
        return
      </CharString>
      <CharString index="66">
        9 -23 -61 4 -9 hhcurveto
        -109 -123 -25 -180 -112 66 -131 180 163 84 107 210 return
      </CharString>
      <CharString index="67">
        -32 -23 hvcurveto
        -321 -45 callgsubr
        return
      </CharString>
      <CharString index="68">
        53 46 35 53 12 return
      </CharString>
      <CharString index="69">
        21 -1 callsubr
        return
      </CharString>
      <CharString index="70">
        hstem
        204 -80 callsubr
        12 -71 callsubr
        -156 192 -511 172 511 194 156 vlineto
        return
      </CharString>
      <CharString index="71">
        -7 148 return
      </CharString>
      <CharString index="72">
        540 -43 callsubr
        140 -453 -9 callgsubr
        251 243 141 -243 135 vlineto
        return
      </CharString>
      <CharString index="73">
        rmoveto
        -66 -7 78 18 43 19 53 56 29 26 -3 -8 19 hvcurveto
        -126 3 -40 -55 -39 hhcurveto
        endchar
      </CharString>
      <CharString index="74">
        -120 465 141 -293 122 254 141 -254 123 293 140 vlineto
        return
      </CharString>
      <CharString index="75">
        -168 -8 131 252 131 return
      </CharString>
      <CharString index="76">
        -175 66 -66 88 return
      </CharString>
      <CharString index="77">
        121 vlineto
        return
      </CharString>
      <CharString index="78">
        69 hlineto
        hintmask 01111000
        -4 -2 -84 -46 -60 -39 callsubr
        -39 callgsubr
        vhcurveto
        endchar
      </CharString>
      <CharString index="79">
        172 134 -80 callsubr
        return
      </CharString>
      <CharString index="80">
        83 77 66 -66 208 return
      </CharString>
      <CharString index="81">
        122 -122 217 return
      </CharString>
      <CharString index="82">
        0 callgsubr
        hstemhm
        return
      </CharString>
      <CharString index="83">
        29 21 -10 callgsubr
        return
      </CharString>
      <CharString index="84">
        92 -92 240 -68 93 hintmask 11101000
        return
      </CharString>
      <CharString index="85">
        -11 -36 callgsubr
        386 148 return
      </CharString>
      <CharString index="86">
        -20 hstem
        -64 callgsubr
        return
      </CharString>
      <CharString index="87">
        3 113 -95 -21 258 113 -75 113 142 113 3 -20 hstemhm
        return
      </CharString>
      <CharString index="88">
        786 262 -7 callsubr
        -65 -53 -38 -29 -20 vhcurveto
        return
      </CharString>
      <CharString index="89">
        273 hmoveto
        689 -172 -689 vlineto
        return
      </CharString>
      <CharString index="90">
        -307 21 -21 return
      </CharString>
      <CharString index="91">
        -294 21 -21 return
      </CharString>
      <CharString index="92">
        -7 129 return
      </CharString>
      <CharString index="93">
        45 -4 callsubr
        return
      </CharString>
      <CharString index="94">
        -20 -54 callsubr
        return
      </CharString>
      <CharString index="95">
        -36 callsubr
        96 -80 callsubr
        -58 callgsubr
        return
      </CharString>
      <CharString index="96">
        -150 0 151 209 139 return
      </CharString>
      <CharString index="97">
        -21 223 129 175 140 return
      </CharString>
      <CharString index="98">
        -667 172 return
      </CharString>
      <CharString index="99">
        430 0 141 -21 126 17 141 123 140 return
      </CharString>
      <CharString index="100">
        -9 134 83 103 -86 70 75 135 -109 109 return
      </CharString>
      <CharString index="101">
        -51 -8 -1 callgsubr
        return
      </CharString>
      <CharString index="102">
        121 273 119 return
      </CharString>
      <CharString index="103">
        rmoveto
        -73 -68 34 159 return
      </CharString>
      <CharString index="104">
        21 -21 499 -20 hstem
        return
      </CharString>
      <CharString index="105">
        79 48 58 103 80 hstemhm
        return
      </CharString>
      <CharString index="106">
        149 384 148 return
      </CharString>
      <CharString index="107">
        122 -20 return
      </CharString>
      <CharString index="108">
        -419 -667 rlineto
        114 hlineto
        419 667 rlineto
        return
      </CharString>
      <CharString index="109">
        hlineto
        76 24 -52 -42 -44 -24 -49 -76 hvcurveto
        endchar
      </CharString>
      <CharString index="110">
        -260 -109 115 578 115 hstemhm
        return
      </CharString>
      <CharString index="111">
        -73 21 -21 251 141 135 140 return
      </CharString>
      <CharString index="112">
        111 rlineto
        -206 86 333 vlineto
        endchar
      </CharString>
      <CharString index="113">
        171 120 -80 callsubr
        return
      </CharString>
      <CharString index="114">
        -138 rmoveto
        144 138 -144 hlineto
        return
      </CharString>
      <CharString index="115">
        hvcurveto
        -30 callgsubr
        -21 -35 -50 -18 -72 hhcurveto
        return
      </CharString>
</ttFont>
